<svg width="100%" height="100%" viewBox="0 0 126 126" fill="none" xmlns="http://www.w3.org/2000/svg">
<circle cx="68.5" cy="68.5" r="57.5" fill="#CFC590"/>
<circle cx="57.5" cy="57.5" r="57.5" fill="#333333"/>
<path d="M57.5 14.3906C33.7294 14.3906 14.3906 33.7294 14.3906 57.5C14.3906 81.2706 33.7294 100.609 57.5 100.609C81.2706 100.609 100.609 81.2706 100.609 57.5C100.609 33.7294 81.2706 14.3906 57.5 14.3906ZM86.0026 34.2707C91.1311 40.5365 94.2367 48.5171 94.3177 57.2081C93.1036 56.9514 80.9298 54.4822 68.6777 56.023C67.6778 53.5823 66.7341 51.4351 65.4415 48.7893C79.0559 43.2308 85.2263 35.3207 86.0026 34.2707ZM81.9091 30.0126C81.2468 30.9559 75.704 38.406 62.6105 43.3137C56.5766 32.2277 49.8889 23.1204 48.8712 21.7576C60.5483 18.9428 72.8535 21.9784 81.9091 30.0126ZM41.8452 24.2328C42.816 25.5641 49.396 34.6826 55.4972 45.5283C38.273 50.1022 23.1025 50.0363 21.4557 50.0146C23.8434 38.5884 31.5436 29.0918 41.8452 24.2328ZM20.678 57.5561C20.678 57.1796 20.6855 56.8049 20.6968 56.431C22.3078 56.464 40.1516 56.694 58.5402 51.1907C59.5943 53.2537 60.6013 55.3478 61.5255 57.4397C48.2104 61.19 36.1129 71.959 30.1441 82.1765C24.263 75.6485 20.678 67.0136 20.678 57.5561ZM34.8983 86.6051C38.7446 78.7423 49.1832 68.5927 64.0283 63.5284C69.1979 76.9623 71.3358 88.2212 71.8834 91.4518C60.0436 96.495 45.8066 95.1114 34.8983 86.6051ZM78.0738 88.0807C77.6964 85.8408 75.7365 75.0615 70.9204 61.8269C82.4591 59.9798 92.5968 63.0034 93.8565 63.4009C92.2152 73.6465 86.3344 82.4949 78.0738 88.0807Z" fill="white"/>
</svg>
