<svg width="44" height="43" viewBox="0 0 44 43" fill="none" xmlns="http://www.w3.org/2000/svg">
<ellipse cx="23.5341" cy="23.377" rx="19.5519" ry="19.623" fill="#CFC590"/>
<ellipse cx="19.7936" cy="19.623" rx="19.5519" ry="19.623" fill="black"/>
<g clip-path="url(#clip0)">
<path d="M19.7933 4.91095C11.7105 4.91095 5.13464 11.5107 5.13464 19.6228C5.13464 27.735 11.7105 34.3347 19.7933 34.3347C27.8761 34.3347 34.4519 27.735 34.4519 19.6228C34.4519 11.5107 27.8761 4.91095 19.7933 4.91095ZM29.4851 11.6954C31.229 13.8337 32.285 16.5572 32.3125 19.5232C31.8997 19.4356 27.7602 18.5929 23.5941 19.1188C23.2541 18.2858 22.9332 17.5531 22.4937 16.6501C27.123 14.7532 29.2212 12.0537 29.4851 11.6954ZM28.0932 10.2422C27.868 10.5642 25.9833 13.1067 21.531 14.7815C19.4793 10.9982 17.2053 7.89017 16.8592 7.42508C20.8298 6.46448 25.014 7.50042 28.0932 10.2422ZM14.4701 8.26977C14.8002 8.72412 17.0376 11.836 19.1123 15.5373C13.2555 17.0982 8.09699 17.0757 7.53701 17.0683C8.34891 13.1689 10.9672 9.928 14.4701 8.26977ZM7.27256 19.642C7.27256 19.5135 7.2751 19.3856 7.27894 19.258C7.82675 19.2693 13.8942 19.3478 20.147 17.4697C20.5054 18.1737 20.8478 18.8884 21.1621 19.6022C16.6345 20.8821 12.5209 24.5572 10.4914 28.0441C8.49159 25.8164 7.27256 22.8695 7.27256 19.642ZM12.108 29.5555C13.4158 26.8722 16.9653 23.4084 22.0131 21.6801C23.771 26.2647 24.4979 30.107 24.6841 31.2095C20.6582 32.9306 15.8171 32.4584 12.108 29.5555ZM26.7891 30.0591C26.6607 29.2947 25.9943 25.616 24.3567 21.0995C28.2802 20.4691 31.7274 21.501 32.1557 21.6366C31.5976 25.1331 29.598 28.1528 26.7891 30.0591Z" fill="white"/>
</g>
<defs>
<clipPath id="clip0">
<rect width="30.263" height="30.3729" fill="white" transform="translate(4.66211 4.4364)"/>
</clipPath>
</defs>
</svg>
