<svg width="100%" height="100%" viewBox="0 0 126 126" fill="none" xmlns="http://www.w3.org/2000/svg">
<rect x="10.8" width="115.2" height="115.2" rx="20" fill="#CFC590"/>
<rect y="10.8" width="115.2" height="115.2" rx="20" fill="#333333"/>
<g clip-path="url(#clip0)">
<path d="M73.5371 54.0056C77.7814 54.0056 81.8518 52.4881 84.853 49.7871C87.8542 47.086 89.5402 43.4226 89.5402 39.6028C89.5402 35.7829 87.8542 32.1195 84.853 29.4184C81.8518 26.7174 77.7814 25.2 73.5371 25.2H41.5308C37.289 25.2 33.2209 26.7165 30.2215 29.416C27.2221 32.1154 25.5371 35.7767 25.5371 39.5943C25.5371 43.412 27.2221 47.0732 30.2215 49.7727C33.2209 52.4722 37.289 53.9887 41.5308 53.9887C37.2865 53.9887 33.2161 55.5061 30.2149 58.2072C27.2137 60.9082 25.5277 64.5717 25.5277 68.3915C25.5277 72.2114 27.2137 75.8748 30.2149 78.5758C33.2161 81.2769 37.2865 82.7943 41.5308 82.7943C38.3657 82.7927 35.2711 83.6357 32.6384 85.2169C30.0056 86.7982 27.953 89.0465 26.7401 91.6776C25.5271 94.3088 25.2083 97.2045 25.824 99.9987C26.4397 102.793 27.9621 105.36 30.1989 107.375C32.4357 109.391 35.2863 110.764 38.3902 111.322C41.4941 111.879 44.712 111.595 47.6369 110.507C50.5618 109.418 53.0624 107.574 54.8223 105.206C56.5823 102.838 57.5227 100.054 57.5246 97.2056V54.0056H73.5371ZM73.5371 54.0056C70.3738 54.0056 67.2816 54.8498 64.6514 56.4315C62.0213 58.0131 59.9713 60.2612 58.7608 62.8915C57.5502 65.5217 57.2335 68.4159 57.8506 71.2082C58.4678 74.0004 59.991 76.5652 62.2278 78.5783C64.4645 80.5914 67.3144 81.9623 70.4168 82.5177C73.5193 83.0732 76.7351 82.7881 79.6576 81.6986C82.5801 80.6091 85.078 78.7642 86.8354 76.397C88.5928 74.0299 89.5308 71.2469 89.5308 68.4C89.5303 64.5825 87.8451 60.9215 84.8458 58.2221C81.8465 55.5227 77.7787 54.006 73.5371 54.0056Z" fill="white"/>
</g>
<defs>
<clipPath id="clip0">
<rect width="72" height="86.4" fill="white" transform="translate(21.6001 25.2)"/>
</clipPath>
</defs>
</svg>
