<svg width="100%" height="100%" viewBox="0 0 126 126" fill="none" xmlns="http://www.w3.org/2000/svg">
<ellipse cx="68.3003" cy="57.5" rx="57.5" ry="57.5" fill="#CFC590"/>
<g clip-path="url(#clip0)">
<rect y="10.8" width="115" height="115" rx="57.5" fill="white"/>
<path d="M38.4647 103.398C38.4647 103.873 37.9315 104.254 37.2591 104.254C36.494 104.325 35.9607 103.945 35.9607 103.398C35.9607 102.922 36.494 102.542 37.1663 102.542C37.8619 102.47 38.4647 102.851 38.4647 103.398ZM31.254 102.328C31.0917 102.803 31.5554 103.35 32.251 103.493C32.8538 103.731 33.5494 103.493 33.6885 103.017C33.8276 102.542 33.3871 101.995 32.6915 101.781C32.0887 101.614 31.4163 101.852 31.254 102.328ZM41.502 101.924C40.8296 102.09 40.3659 102.542 40.4355 103.089C40.505 103.564 41.1079 103.873 41.8034 103.707C42.4758 103.541 42.9395 103.089 42.87 102.613C42.8004 102.161 42.1744 101.852 41.502 101.924ZM56.7581 10.8C24.5998 10.8 0 35.84 0 68.8223C0 95.1939 16.1835 117.761 39.2994 125.703C42.2671 126.25 43.3105 124.371 43.3105 122.826C43.3105 121.351 43.2409 113.219 43.2409 108.225C43.2409 108.225 27.0111 111.792 23.6028 101.139C23.6028 101.139 20.9597 94.2189 17.1573 92.4355C17.1573 92.4355 11.8478 88.7021 17.5282 88.7734C17.5282 88.7734 23.3014 89.249 26.4778 94.9086C31.5554 104.087 40.0645 101.448 43.38 99.8785C43.9133 96.0738 45.4204 93.4342 47.0897 91.8648C34.129 90.3904 21.0524 88.4643 21.0524 65.5883C21.0524 59.0489 22.8145 55.7673 26.5242 51.5821C25.9214 50.0364 23.9506 43.6635 27.127 35.4357C31.9728 33.8901 43.125 41.8562 43.125 41.8562C47.7621 40.5246 52.747 39.835 57.6855 39.835C62.624 39.835 67.6089 40.5246 72.246 41.8562C72.246 41.8562 83.3982 33.8663 88.244 35.4357C91.4204 43.6873 89.4496 50.0364 88.8468 51.5821C92.5565 55.7911 94.8286 59.0727 94.8286 65.5883C94.8286 88.5356 81.1724 90.3666 68.2117 91.8648C70.3448 93.7433 72.1532 97.3103 72.1532 102.898C72.1532 110.912 72.0837 120.828 72.0837 122.778C72.0837 124.324 73.1502 126.203 76.0948 125.656C99.2802 117.761 115 95.1939 115 68.8223C115 35.84 88.9163 10.8 56.7581 10.8ZM22.5363 92.8159C22.2349 93.0537 22.3044 93.6007 22.6986 94.0525C23.0696 94.433 23.6028 94.5994 23.9042 94.2903C24.2056 94.0525 24.1361 93.5056 23.7419 93.0537C23.371 92.6733 22.8377 92.5068 22.5363 92.8159ZM20.0323 90.8898C19.87 91.1989 20.1018 91.5794 20.5655 91.8172C20.9365 92.055 21.4002 91.9837 21.5625 91.6507C21.7248 91.3416 21.4929 90.9611 21.0292 90.7233C20.5655 90.5807 20.1946 90.652 20.0323 90.8898ZM27.5444 99.3553C27.1734 99.6645 27.3125 100.378 27.8458 100.83C28.379 101.377 29.0514 101.448 29.3528 101.067C29.6542 100.758 29.5151 100.045 29.0514 99.5931C28.5413 99.0462 27.8458 98.9749 27.5444 99.3553ZM24.9012 95.8597C24.5302 96.0975 24.5302 96.7158 24.9012 97.2627C25.2722 97.8097 25.8982 98.0475 26.1996 97.8097C26.5706 97.5005 26.5706 96.8823 26.1996 96.3353C25.875 95.7884 25.2722 95.5506 24.9012 95.8597Z" fill="#333333"/>
</g>
<defs>
<clipPath id="clip0">
<rect y="10.8" width="115" height="115" rx="57.5" fill="white"/>
</clipPath>
</defs>
</svg>
