<svg width="44" height="43" viewBox="0 0 44 43" fill="none" xmlns="http://www.w3.org/2000/svg">
<ellipse cx="23.6384" cy="19.623" rx="19.5519" ry="19.623" fill="#CFC590"/>
<g clip-path="url(#clip0)">
<rect x="0.413818" y="3.6853" width="39.1039" height="39.2459" rx="19.5227" fill="white"/>
<path d="M13.4931 35.286C13.4931 35.4484 13.3118 35.5782 13.0832 35.5782C12.823 35.6025 12.6417 35.4727 12.6417 35.286C12.6417 35.1237 12.823 34.9939 13.0516 34.9939C13.2881 34.9696 13.4931 35.0994 13.4931 35.286ZM11.0412 34.9209C10.9861 35.0832 11.1437 35.2698 11.3803 35.3185C11.5852 35.3997 11.8217 35.3185 11.8691 35.1562C11.9164 34.9939 11.7666 34.8072 11.53 34.7342C11.3251 34.6774 11.0964 34.7586 11.0412 34.9209ZM14.5259 34.7829C14.2973 34.8397 14.1396 34.9939 14.1633 35.1805C14.1869 35.3429 14.3919 35.4484 14.6284 35.3915C14.857 35.3347 15.0147 35.1805 14.9911 35.0182C14.9674 34.8641 14.7545 34.7586 14.5259 34.7829ZM19.7135 3.6853C8.77858 3.6853 0.413818 12.2307 0.413818 23.4865C0.413818 32.4863 5.91675 40.1877 13.7769 42.8981C14.7861 43.0848 15.1408 42.4437 15.1408 41.9162C15.1408 41.4131 15.1172 38.6376 15.1172 36.9334C15.1172 36.9334 9.5985 38.1507 8.43958 34.5151C8.43958 34.5151 7.54082 32.1536 6.24787 31.5449C6.24787 31.5449 4.44247 30.2708 6.37401 30.2952C6.37401 30.2952 8.33709 30.4575 9.41717 32.3889C11.1437 35.5214 14.0371 34.6206 15.1645 34.085C15.3458 32.7866 15.8583 31.8858 16.4259 31.3502C12.0188 30.847 7.57235 30.1897 7.57235 22.3828C7.57235 20.1511 8.17153 19.0312 9.43294 17.6029C9.22796 17.0754 8.55783 14.9006 9.63792 12.0927C11.2856 11.5652 15.0778 14.2838 15.0778 14.2838C16.6545 13.8294 18.3496 13.594 20.0288 13.594C21.7081 13.594 23.4031 13.8294 24.9799 14.2838C24.9799 14.2838 28.772 11.5571 30.4197 12.0927C31.4998 14.9087 30.8297 17.0754 30.6247 17.6029C31.8861 19.0393 32.6588 20.1592 32.6588 22.3828C32.6588 30.214 28.0152 30.8389 23.6081 31.3502C24.3334 31.9913 24.9484 33.2085 24.9484 35.1156C24.9484 37.8505 24.9247 41.2345 24.9247 41.9C24.9247 42.4275 25.2874 43.0686 26.2886 42.8819C34.1725 40.1877 39.5177 32.4863 39.5177 23.4865C39.5177 12.2307 30.6484 3.6853 19.7135 3.6853ZM8.07692 31.6748C7.97443 31.7559 7.99808 31.9426 8.13211 32.0968C8.25825 32.2266 8.43958 32.2834 8.54207 32.1779C8.64456 32.0968 8.6209 31.9101 8.48688 31.7559C8.36074 31.6261 8.17941 31.5693 8.07692 31.6748ZM7.22546 31.0174C7.17028 31.1229 7.24911 31.2528 7.40679 31.3339C7.53293 31.4151 7.69061 31.3907 7.7458 31.2771C7.80098 31.1716 7.72215 31.0418 7.56447 30.9606C7.40679 30.9119 7.28065 30.9363 7.22546 31.0174ZM9.77983 33.9065C9.65369 34.012 9.70099 34.2554 9.88232 34.4096C10.0636 34.5963 10.2923 34.6206 10.3948 34.4908C10.4973 34.3853 10.45 34.1418 10.2923 33.9876C10.1188 33.801 9.88232 33.7766 9.77983 33.9065ZM8.88107 32.7135C8.75493 32.7947 8.75493 33.0057 8.88107 33.1923C9.00721 33.379 9.22008 33.4601 9.32257 33.379C9.44871 33.2735 9.44871 33.0625 9.32257 32.8758C9.21219 32.6892 9.00721 32.608 8.88107 32.7135Z" fill="black"/>
</g>
<defs>
<clipPath id="clip0">
<rect x="0.413818" y="3.6853" width="39.1039" height="39.2459" rx="19.5227" fill="white"/>
</clipPath>
</defs>
</svg>
