<svg width="100%" height="100%" viewBox="0 0 43 43" fill="none" xmlns="http://www.w3.org/2000/svg">
<rect x="4.43213" y="4.60718" width="38.4121" height="38.3927" rx="4.03919" fill="#CFC590"/>
<g clip-path="url(#clip0)">
<rect width="38.4121" height="38.3927" rx="4.03919" fill="white"/>
<path d="M35.6684 0H2.73515C1.2261 0 0 1.24262 0 2.76805V35.6247C0 37.1501 1.2261 38.3927 2.73515 38.3927H35.6684C37.1774 38.3927 38.4121 37.1501 38.4121 35.6247V2.76805C38.4121 1.24262 37.1774 0 35.6684 0ZM11.6094 32.9081H5.91615V14.5858H11.6179V32.9081H11.6094ZM8.76276 12.0834C6.93647 12.0834 5.46172 10.6009 5.46172 8.78405C5.46172 6.96725 6.93647 5.48468 8.76276 5.48468C10.5805 5.48468 12.0638 6.96725 12.0638 8.78405C12.0638 10.6094 10.589 12.0834 8.76276 12.0834ZM32.9504 32.9081H27.2572V23.9955C27.2572 21.8701 27.2143 19.1364 24.2991 19.1364C21.3324 19.1364 20.878 21.4502 20.878 23.8412V32.9081H15.1848V14.5858H20.6465V17.0882H20.7237C21.4868 15.6485 23.3474 14.1316 26.1168 14.1316C31.8786 14.1316 32.9504 17.928 32.9504 22.8642V32.9081Z" fill="black"/>
</g>
<defs>
<clipPath id="clip0">
<rect width="38.4121" height="38.3927" rx="4.03919" fill="white"/>
</clipPath>
</defs>
</svg>
