<svg width="100%" height="100%" viewBox="0 0 126 126" fill="none" xmlns="http://www.w3.org/2000/svg">
<rect x="13.0344" y="13.5" width="112.966" height="112.5" rx="12" fill="#CFC590"/>
<g clip-path="url(#clip0)">
<rect width="112.966" height="112.5" rx="12" fill="white"/>
<path d="M104.897 0H8.04375C3.60582 0 0 3.64118 0 8.11105V104.389C0 108.859 3.60582 112.5 8.04375 112.5H104.897C109.334 112.5 112.966 108.859 112.966 104.389V8.11105C112.966 3.64118 109.334 0 104.897 0ZM34.1418 96.4286H17.3987V42.74H34.167V96.4286H34.1418ZM25.7703 35.4074C20.3994 35.4074 16.0623 31.0631 16.0623 25.7394C16.0623 20.4157 20.3994 16.0714 25.7703 16.0714C31.1159 16.0714 35.4782 20.4157 35.4782 25.7394C35.4782 31.0882 31.1412 35.4074 25.7703 35.4074V35.4074ZM96.9032 96.4286H80.1601V70.3125C80.1601 64.0848 80.034 56.0742 71.4608 56.0742C62.7362 56.0742 61.3998 62.8544 61.3998 69.8605V96.4286H44.6567V42.74H60.719V50.0725H60.9459C63.1901 45.8538 68.6619 41.409 76.8065 41.409C93.7513 41.409 96.9032 52.5335 96.9032 66.9978V96.4286V96.4286Z" fill="#333333"/>
</g>
<defs>
<clipPath id="clip0">
<rect width="112.966" height="112.5" rx="12" fill="white"/>
</clipPath>
</defs>
</svg>
