<svg width="758" height="342" viewBox="0 0 758 342" fill="none" xmlns="http://www.w3.org/2000/svg">
<path d="M146.163 275L116.643 202.28L144.867 164.12H114.051L91.0105 195.944L87.2665 203.72V164.12H59.7625V275H87.2665V232.664L95.3305 224.168L114.771 275H146.163ZM232.917 275L203.973 164.12H174.021L145.797 275H173.157L177.477 255.416H201.381L205.845 275H232.917ZM196.341 235.976H182.373L187.269 210.776C188.133 206.312 188.709 201.848 189.141 197.096C189.141 199.688 189.861 204.296 191.157 210.776L196.341 235.976ZM319.528 275L303.832 222.872C313.768 219.128 318.808 210.056 318.808 195.512C318.808 186.44 316.504 179.24 311.896 173.768C306.424 167.288 298.216 164.12 287.416 164.12H240.184V275H267.256V225.896H276.904L290.152 275H319.528ZM290.152 195.368C290.152 201.848 286.84 205.16 280.36 205.16H267.256V185.144H280.504C283.96 185.144 286.408 185.864 287.992 187.448C289.432 189.032 290.152 191.624 290.152 195.368ZM446.115 164.12H419.475L410.691 215.384C409.827 220.28 409.395 224.744 408.819 228.488C407.955 222.584 407.091 218.264 406.515 215.528L396.147 164.12H373.539L363.891 214.808C362.307 223.16 361.587 227.768 361.443 228.488C361.443 226.328 361.155 223.448 360.578 220.136C360.291 218.408 360.003 216.68 359.57 214.808L349.203 164.12H322.562L347.043 275L372.819 275.144L382.611 229.352C384.339 221.576 385.059 216.968 385.203 215.384C386.211 221 386.931 225.752 387.651 229.352L397.299 275H423.363L446.115 164.12ZM531.852 218.984C531.852 197.816 528.252 182.84 521.052 174.2C514.86 166.856 505.068 163.112 491.388 163.112C477.708 163.112 467.772 166.856 461.58 174.488C454.38 183.272 450.78 198.104 450.78 218.984C450.78 239.864 454.38 254.84 461.292 263.912C467.628 272.12 477.564 276.296 491.244 276.296C504.636 276.296 514.572 272.264 521.052 264.2C528.252 255.128 531.852 240.008 531.852 218.984ZM504.204 219.416C504.204 233.672 503.34 243.464 501.324 248.36C499.596 252.68 496.14 254.84 491.388 254.84C486.492 254.84 483.18 252.68 481.452 248.36C479.436 243.464 478.428 233.816 478.428 219.416C478.428 205.304 479.58 195.8 481.74 190.76C483.612 186.728 486.78 184.712 491.388 184.712C495.996 184.712 499.164 186.728 500.892 190.616C503.052 195.512 504.204 205.16 504.204 219.416ZM620.981 241.448C620.981 232.808 618.677 226.04 613.925 221C609.605 216.392 601.973 212.072 591.029 208.04C587.573 206.744 585.125 205.592 583.397 205.016C577.637 203.144 573.749 201.272 571.589 199.112C569.717 197.24 568.853 194.648 568.853 191.192C568.853 185.432 571.877 182.552 577.925 182.552C582.389 182.552 585.269 184.712 586.709 189.176C587.141 193.064 587.429 196.52 587.573 199.544L616.373 195.8C616.229 194.504 615.941 193.496 615.797 192.92C613.349 173.048 600.965 163.112 578.933 163.112C553.445 163.112 540.773 172.904 540.773 192.488C540.773 200.408 542.789 206.744 546.965 211.352C551.141 215.96 558.053 219.704 567.845 222.872C572.165 224.312 575.333 225.464 577.349 226.328C583.397 228.776 587.141 231.224 588.869 233.384C591.029 235.832 592.037 239.864 592.037 245.48C592.037 252.536 588.725 255.992 581.957 255.992C573.605 255.992 569.717 249.224 570.437 235.688L539.189 239.576C539.045 241.448 539.045 243.464 539.189 245.336C540.053 255.848 543.653 263.624 550.277 268.52C556.757 273.272 566.693 275.72 579.941 275.72C594.773 275.72 605.573 272.84 612.053 266.936C617.957 261.608 620.981 253.112 620.981 241.448ZM716.397 275L686.877 202.28L715.101 164.12H684.285L661.245 195.944L657.501 203.72V164.12H629.997V275H657.501V232.664L665.565 224.168L685.005 275H716.397ZM750.735 275V164.12H723.231V275H750.735Z" fill="#4062BF"/>
<path d="M87.12 164L58.176 53.12H28.224L0 164H27.36L31.68 144.416H55.584L60.048 164H87.12ZM50.544 124.976H36.576L41.472 99.776C42.336 95.312 42.912 90.848 43.344 86.096C43.344 88.688 44.064 93.296 45.36 99.776L50.544 124.976ZM173.156 164V53.12H146.948V95.6L147.092 108.704L121.604 53.12H94.3875V164H120.74V112.736L120.596 103.808L146.372 164H173.156ZM267.398 109.856C267.398 87.536 264.086 72.128 257.174 63.92C251.126 56.72 240.47 53.12 225.206 53.12H187.622V164H224.342C241.19 164 252.566 160.256 258.47 152.624C264.374 145.136 267.398 130.88 267.398 109.856ZM238.598 109.28C238.598 123.68 237.302 133.328 234.566 138.08C232.694 141.536 229.238 143.264 224.342 143.264H214.982V73.568H225.062C229.526 73.568 232.694 75.44 234.566 79.04C237.302 84.368 238.598 94.448 238.598 109.28ZM358.637 53.12H329.693L319.325 87.104C317.885 91.856 317.021 95.888 316.733 99.2C315.869 93.872 315.148 89.696 314.285 87.104L302.909 53.12H272.812L302.045 125.84V164H329.981V125.984L358.637 53.12Z" fill="#FE4539"/>
<path d="M89.968 302.032V297.04H86.32C84.16 297.04 82.48 297.616 81.376 298.768C80.272 299.92 79.744 301.456 79.744 303.376V308.272H76.768V313.168H79.744V334H86.176V313.12H89.92V308.272H86.128V304.576C86.128 302.896 86.896 302.032 88.48 302.032H89.968ZM106.377 313.744V307.984H105.609C102.681 307.984 100.473 309.28 98.9369 311.872V308.176H92.6009V334H98.9369V319.024C99.5609 315.376 101.433 313.552 104.505 313.552C105.417 313.552 106.041 313.6 106.377 313.744ZM128.872 321.088C128.872 316.48 128.056 313.12 126.424 311.056C124.84 308.992 122.248 307.936 118.696 307.936C115.096 307.936 112.504 308.992 110.872 311.056C109.24 313.12 108.424 316.48 108.424 321.088C108.424 325.696 109.24 329.056 110.872 331.12C112.504 333.184 115.096 334.24 118.648 334.24C122.152 334.24 124.696 333.184 126.376 331.12C128.056 329.056 128.872 325.696 128.872 321.088ZM122.44 321.088C122.44 324.304 122.104 326.608 121.48 327.904C120.904 329.056 119.944 329.632 118.648 329.632C117.352 329.632 116.392 329.104 115.816 327.952C115.144 326.608 114.808 324.304 114.808 321.088C114.808 317.872 115.144 315.568 115.816 314.272C116.392 313.12 117.352 312.544 118.648 312.544C119.944 312.544 120.904 313.12 121.48 314.272C122.104 315.568 122.44 317.824 122.44 321.088ZM152.12 334V315.904C152.12 310.576 149.864 307.936 145.304 307.936C142.568 307.936 140.456 308.944 139.016 310.96V308.176H132.68V334H139.016V316.336C139.16 315.232 139.592 314.32 140.312 313.696C141.032 313.072 141.848 312.784 142.808 312.784C144.776 312.784 145.784 314.032 145.784 316.48V334H152.12ZM167.815 313.12V308.272H164.263V299.632L157.831 302.128V308.272H154.711V313.12H157.831V327.088C157.831 329.728 158.359 331.552 159.415 332.704C160.375 333.76 162.007 334.288 164.263 334.288C164.407 334.288 165.511 334.192 167.623 334V329.152H165.943C165.175 329.152 164.695 328.816 164.455 328.144C164.311 327.76 164.263 327.088 164.263 326.128V313.12H167.815ZM190.454 322.192C190.502 317.056 189.638 313.312 187.958 311.056C186.422 308.992 184.022 307.936 180.71 307.936C173.942 307.936 170.534 312.304 170.534 320.992C170.534 325.792 171.398 329.248 173.078 331.312C174.662 333.28 177.158 334.24 180.614 334.24C186.422 334.24 189.59 331.36 190.214 325.552L183.974 324.736C183.83 326.608 183.494 327.904 183.014 328.672C182.534 329.44 181.718 329.824 180.614 329.824C179.366 329.824 178.502 329.296 177.926 328.288C177.302 327.136 176.918 325.12 176.822 322.192H190.454ZM184.214 318.112H176.87C177.206 314.128 178.454 312.16 180.662 312.16C181.766 312.16 182.582 312.544 183.11 313.36C183.734 314.272 184.07 315.856 184.214 318.112ZM213.48 334V315.904C213.48 310.576 211.224 307.936 206.664 307.936C203.928 307.936 201.816 308.944 200.376 310.96V308.176H194.04V334H200.376V316.336C200.52 315.232 200.952 314.32 201.672 313.696C202.392 313.072 203.208 312.784 204.168 312.784C206.136 312.784 207.144 314.032 207.144 316.48V334H213.48ZM237.094 334V297.04H230.806V310.48C229.51 308.896 227.686 308.08 225.334 308.08C222.79 308.08 220.87 308.896 219.622 310.48C218.038 312.496 217.222 316 217.222 320.944C217.222 325.792 217.942 329.296 219.334 331.36C220.582 333.232 222.55 334.144 225.286 334.144C227.926 334.144 229.798 333.328 230.95 331.648V334H237.094ZM230.71 325.504C230.566 328.192 229.414 329.536 227.254 329.536C225.958 329.536 225.046 328.96 224.518 327.856C223.894 326.56 223.606 324.304 223.606 320.992C223.606 317.68 223.894 315.376 224.518 314.176C225.046 313.12 225.958 312.592 227.254 312.592C229.03 312.592 230.134 313.648 230.566 315.712C230.71 316.432 230.806 318.208 230.806 320.992C230.806 322.816 230.758 324.304 230.71 325.504ZM284.02 308.176H277.876L274.9 321.328C274.42 323.44 274.18 324.928 274.132 325.84C274.084 324.832 273.796 323.296 273.364 321.328L270.484 308.176H264.58L261.604 321.328C261.172 323.2 260.932 324.688 260.836 325.888C260.788 324.976 260.548 323.488 260.068 321.328L257.14 308.176H250.612L257.38 334H263.668L266.788 319.504C266.788 319.456 266.884 319.12 267.076 318.4C267.22 317.728 267.316 317.344 267.316 317.296C267.7 318.448 267.892 319.168 267.892 319.504L270.82 334H277.108L284.02 308.176ZM305.532 322.192C305.58 317.056 304.716 313.312 303.036 311.056C301.5 308.992 299.1 307.936 295.788 307.936C289.02 307.936 285.612 312.304 285.612 320.992C285.612 325.792 286.476 329.248 288.156 331.312C289.74 333.28 292.236 334.24 295.692 334.24C301.5 334.24 304.668 331.36 305.292 325.552L299.052 324.736C298.908 326.608 298.572 327.904 298.092 328.672C297.612 329.44 296.796 329.824 295.692 329.824C294.444 329.824 293.58 329.296 293.004 328.288C292.38 327.136 291.996 325.12 291.9 322.192H305.532ZM299.292 318.112H291.948C292.284 314.128 293.532 312.16 295.74 312.16C296.844 312.16 297.66 312.544 298.188 313.36C298.812 314.272 299.148 315.856 299.292 318.112ZM328.942 321.232C328.942 316.144 328.222 312.592 326.782 310.528C325.534 308.752 323.566 307.888 320.83 307.888C318.382 307.888 316.558 308.8 315.31 310.624V297.04H309.07V334H315.166V331.744C316.174 333.328 318.046 334.144 320.734 334.144C323.422 334.144 325.39 333.28 326.686 331.504C328.174 329.44 328.942 326.032 328.942 321.232ZM322.51 321.04C322.51 324.256 322.27 326.56 321.694 327.808C321.166 328.96 320.254 329.536 318.958 329.536C316.798 329.536 315.598 328.24 315.406 325.648C315.358 325.216 315.358 323.68 315.358 321.04C315.358 318.832 315.358 317.44 315.406 316.816C315.55 313.936 316.75 312.496 318.91 312.496C320.206 312.496 321.07 313.024 321.598 314.128C322.222 315.376 322.51 317.68 322.51 321.04ZM362.907 334V297.04H356.619V310.48C355.323 308.896 353.499 308.08 351.147 308.08C348.603 308.08 346.683 308.896 345.435 310.48C343.851 312.496 343.035 316 343.035 320.944C343.035 325.792 343.755 329.296 345.147 331.36C346.395 333.232 348.363 334.144 351.099 334.144C353.739 334.144 355.611 333.328 356.763 331.648V334H362.907ZM356.523 325.504C356.379 328.192 355.227 329.536 353.067 329.536C351.771 329.536 350.859 328.96 350.331 327.856C349.707 326.56 349.419 324.304 349.419 320.992C349.419 317.68 349.707 315.376 350.331 314.176C350.859 313.12 351.771 312.592 353.067 312.592C354.843 312.592 355.947 313.648 356.379 315.712C356.523 316.432 356.619 318.208 356.619 320.992C356.619 322.816 356.571 324.304 356.523 325.504ZM386.579 322.192C386.627 317.056 385.763 313.312 384.083 311.056C382.547 308.992 380.147 307.936 376.835 307.936C370.067 307.936 366.659 312.304 366.659 320.992C366.659 325.792 367.523 329.248 369.203 331.312C370.787 333.28 373.283 334.24 376.739 334.24C382.547 334.24 385.715 331.36 386.339 325.552L380.099 324.736C379.955 326.608 379.619 327.904 379.139 328.672C378.659 329.44 377.843 329.824 376.739 329.824C375.491 329.824 374.627 329.296 374.051 328.288C373.427 327.136 373.043 325.12 372.947 322.192H386.579ZM380.339 318.112H372.995C373.331 314.128 374.579 312.16 376.787 312.16C377.891 312.16 378.707 312.544 379.235 313.36C379.859 314.272 380.195 315.856 380.339 318.112ZM409.413 308.176H402.981L399.717 321.616C399.477 323.488 399.189 325.264 398.949 326.848C398.613 324.736 398.469 322.96 398.085 321.616L394.485 308.176H387.861L395.445 334H402.165L409.413 308.176ZM430.876 322.192C430.924 317.056 430.06 313.312 428.38 311.056C426.844 308.992 424.444 307.936 421.132 307.936C414.364 307.936 410.956 312.304 410.956 320.992C410.956 325.792 411.82 329.248 413.5 331.312C415.084 333.28 417.58 334.24 421.036 334.24C426.844 334.24 430.012 331.36 430.636 325.552L424.396 324.736C424.252 326.608 423.916 327.904 423.436 328.672C422.956 329.44 422.14 329.824 421.036 329.824C419.788 329.824 418.924 329.296 418.348 328.288C417.724 327.136 417.34 325.12 417.244 322.192H430.876ZM424.636 318.112H417.292C417.628 314.128 418.876 312.16 421.084 312.16C422.188 312.16 423.004 312.544 423.532 313.36C424.156 314.272 424.492 315.856 424.636 318.112ZM440.749 334V297.04H434.413V334H440.749ZM464.919 321.088C464.919 316.48 464.103 313.12 462.471 311.056C460.887 308.992 458.295 307.936 454.743 307.936C451.143 307.936 448.551 308.992 446.919 311.056C445.287 313.12 444.471 316.48 444.471 321.088C444.471 325.696 445.287 329.056 446.919 331.12C448.551 333.184 451.143 334.24 454.695 334.24C458.199 334.24 460.743 333.184 462.423 331.12C464.103 329.056 464.919 325.696 464.919 321.088ZM458.487 321.088C458.487 324.304 458.151 326.608 457.527 327.904C456.951 329.056 455.991 329.632 454.695 329.632C453.399 329.632 452.439 329.104 451.863 327.952C451.191 326.608 450.855 324.304 450.855 321.088C450.855 317.872 451.191 315.568 451.863 314.272C452.439 313.12 453.399 312.544 454.695 312.544C455.991 312.544 456.951 313.12 457.527 314.272C458.151 315.568 458.487 317.824 458.487 321.088ZM488.647 321.232C488.647 316.192 487.927 312.592 486.487 310.576C485.239 308.848 483.271 307.984 480.535 307.984C477.991 307.984 476.119 308.848 475.015 310.624V308.176H468.727V341.68H475.063V331.84C476.167 333.424 478.039 334.192 480.583 334.192C483.223 334.192 485.143 333.328 486.391 331.6C487.879 329.536 488.647 326.08 488.647 321.232ZM482.215 321.04C482.215 324.352 481.927 326.56 481.399 327.712C480.871 328.864 479.911 329.44 478.567 329.44C476.407 329.44 475.207 328.096 475.063 325.456C475.015 324.928 475.015 323.44 475.015 320.992C475.015 319.12 475.015 317.824 475.063 317.152C475.207 314.128 476.359 312.592 478.615 312.592C479.911 312.592 480.775 313.12 481.303 314.176C481.927 315.376 482.215 317.68 482.215 321.04ZM511.501 322.192C511.549 317.056 510.685 313.312 509.005 311.056C507.469 308.992 505.069 307.936 501.757 307.936C494.989 307.936 491.581 312.304 491.581 320.992C491.581 325.792 492.445 329.248 494.125 331.312C495.709 333.28 498.205 334.24 501.661 334.24C507.469 334.24 510.637 331.36 511.261 325.552L505.021 324.736C504.877 326.608 504.541 327.904 504.061 328.672C503.581 329.44 502.765 329.824 501.661 329.824C500.413 329.824 499.549 329.296 498.973 328.288C498.349 327.136 497.965 325.12 497.869 322.192H511.501ZM505.261 318.112H497.917C498.253 314.128 499.501 312.16 501.709 312.16C502.813 312.16 503.629 312.544 504.157 313.36C504.781 314.272 505.117 315.856 505.261 318.112ZM528.814 313.744V307.984H528.046C525.118 307.984 522.91 309.28 521.374 311.872V308.176H515.038V334H521.374V319.024C521.998 315.376 523.87 313.552 526.942 313.552C527.854 313.552 528.478 313.6 528.814 313.744Z" fill="#4062BF"/>
<path d="M557.139 297.04H551.811L538.803 341.584H544.179L557.139 297.04Z" fill="#CFC590"/>
<path d="M589.641 334V297.04H583.353V310.48C582.057 308.896 580.233 308.08 577.881 308.08C575.337 308.08 573.417 308.896 572.169 310.48C570.585 312.496 569.769 316 569.769 320.944C569.769 325.792 570.489 329.296 571.881 331.36C573.129 333.232 575.097 334.144 577.833 334.144C580.473 334.144 582.345 333.328 583.497 331.648V334H589.641ZM583.257 325.504C583.113 328.192 581.961 329.536 579.801 329.536C578.505 329.536 577.593 328.96 577.065 327.856C576.441 326.56 576.153 324.304 576.153 320.992C576.153 317.68 576.441 315.376 577.065 314.176C577.593 313.12 578.505 312.592 579.801 312.592C581.577 312.592 582.681 313.648 583.113 315.712C583.257 316.432 583.353 318.208 583.353 320.992C583.353 322.816 583.305 324.304 583.257 325.504ZM613.313 322.192C613.361 317.056 612.497 313.312 610.817 311.056C609.281 308.992 606.881 307.936 603.569 307.936C596.801 307.936 593.393 312.304 593.393 320.992C593.393 325.792 594.257 329.248 595.937 331.312C597.521 333.28 600.017 334.24 603.473 334.24C609.281 334.24 612.449 331.36 613.073 325.552L606.833 324.736C606.689 326.608 606.353 327.904 605.873 328.672C605.393 329.44 604.577 329.824 603.473 329.824C602.225 329.824 601.361 329.296 600.785 328.288C600.161 327.136 599.777 325.12 599.681 322.192H613.313ZM607.073 318.112H599.729C600.065 314.128 601.313 312.16 603.521 312.16C604.625 312.16 605.441 312.544 605.969 313.36C606.593 314.272 606.929 315.856 607.073 318.112ZM634.563 326.512C634.563 324.544 634.179 322.96 633.363 321.856C632.595 320.752 631.347 319.84 629.571 319.216C627.987 318.688 626.739 318.352 625.875 318.112C624.387 317.728 623.379 317.296 622.851 316.912C622.323 316.528 622.083 315.952 622.083 315.136C622.083 313.36 622.995 312.496 624.867 312.496C626.643 312.496 627.747 313.504 628.275 315.472C628.323 315.712 628.371 315.904 628.419 316.096L634.035 314.608C634.035 314.656 633.987 314.416 633.843 313.936C632.739 309.952 629.763 307.936 624.915 307.936C621.987 307.936 619.683 308.704 617.955 310.144C616.371 311.488 615.555 313.072 615.555 314.992C615.555 318.304 617.523 320.608 621.507 321.808C622.707 322.144 623.811 322.528 624.819 322.864C626.067 323.296 626.883 323.728 627.315 324.256C627.699 324.784 627.891 325.552 627.891 326.656C627.891 328.672 626.883 329.68 624.867 329.68C622.707 329.68 621.411 328.384 620.931 325.84C620.883 325.024 620.883 324.592 620.883 324.496L615.219 325.744C615.219 326.656 615.267 327.184 615.315 327.328C616.083 331.984 619.347 334.288 625.155 334.288C627.987 334.288 630.195 333.664 631.827 332.464C633.651 331.072 634.563 329.104 634.563 326.512ZM644.239 304.72V298.432H637.711V304.72H644.239ZM644.143 334V308.176H637.759V334H644.143ZM667.827 332.224V308.176H661.539V310.528C660.531 308.896 658.803 308.08 656.307 308.08C653.715 308.08 651.747 308.8 650.499 310.336C648.819 312.352 648.003 315.904 648.003 320.944C648.003 325.648 648.723 329.056 650.115 331.12C651.411 332.992 653.379 333.952 656.115 333.952C659.234 333.952 661.107 332.992 661.779 331.024C661.779 331.744 661.779 332.32 661.731 332.848C661.635 334.528 661.251 335.776 660.579 336.496C659.955 337.216 658.947 337.6 657.555 337.6C654.675 337.6 652.947 336.688 652.419 334.816L648.531 336.16C649.155 339.952 652.323 341.872 658.035 341.872C661.875 341.872 664.563 340.912 666.099 338.944C667.251 337.456 667.827 335.2 667.827 332.224ZM661.539 323.152C661.539 325.552 661.155 327.232 660.627 328.144C660.099 329.056 659.234 329.488 658.035 329.488C656.787 329.488 655.875 328.912 655.347 327.808C654.723 326.512 654.387 324.256 654.387 320.992C654.387 317.632 654.675 315.328 655.299 314.128C655.827 313.072 656.691 312.544 657.987 312.544C660.243 312.544 661.539 314.608 661.539 318.784V321.088C661.539 322.48 661.539 323.152 661.539 323.152ZM691.933 334V315.904C691.933 310.576 689.677 307.936 685.117 307.936C682.381 307.936 680.269 308.944 678.829 310.96V308.176H672.493V334H678.829V316.336C678.973 315.232 679.405 314.32 680.125 313.696C680.845 313.072 681.661 312.784 682.621 312.784C684.589 312.784 685.597 314.032 685.597 316.48V334H691.933ZM715.548 322.192C715.596 317.056 714.732 313.312 713.052 311.056C711.516 308.992 709.116 307.936 705.804 307.936C699.036 307.936 695.628 312.304 695.628 320.992C695.628 325.792 696.492 329.248 698.172 331.312C699.756 333.28 702.252 334.24 705.708 334.24C711.516 334.24 714.684 331.36 715.308 325.552L709.068 324.736C708.924 326.608 708.588 327.904 708.108 328.672C707.628 329.44 706.812 329.824 705.708 329.824C704.46 329.824 703.596 329.296 703.02 328.288C702.396 327.136 702.012 325.12 701.916 322.192H715.548ZM709.308 318.112H701.964C702.3 314.128 703.548 312.16 705.756 312.16C706.859 312.16 707.676 312.544 708.204 313.36C708.828 314.272 709.164 315.856 709.308 318.112ZM732.861 313.744V307.984H732.093C729.165 307.984 726.957 309.28 725.421 311.872V308.176H719.085V334H725.421V319.024C726.045 315.376 727.917 313.552 730.989 313.552C731.901 313.552 732.525 313.6 732.861 313.744Z" fill="#FE4539"/>
</svg>
