<svg width="44" height="42" viewBox="0 0 44 42" fill="none" xmlns="http://www.w3.org/2000/svg">
<rect x="0.827881" width="38.4121" height="37.1739" fill="#CFC590"/>
<g clip-path="url(#clip0)">
<rect width="38.4121" height="37.1739" transform="translate(5.25989 4.46106)" fill="white"/>
<path d="M5.25989 4.0816V42.0142H43.672V4.0816H5.25989ZM37.1728 13.0652L35.115 15.0126C34.935 15.1481 34.8492 15.3682 34.8835 15.5799V29.9147C34.8492 30.1348 34.935 30.355 35.115 30.482L37.1299 32.4294V32.8612H27.0125V32.4464L29.096 30.4481C29.3017 30.2449 29.3017 30.1856 29.3017 29.8808V18.2894L23.5056 32.8189H22.7254L15.9775 18.2894V28.0265C15.9175 28.433 16.0633 28.8478 16.3548 29.1442L19.0642 32.3871V32.8189H11.3647V32.3871L14.0741 29.1442C14.3656 28.8478 14.4942 28.433 14.4256 28.0265V16.7653C14.4599 16.452 14.3399 16.1472 14.0998 15.9355L11.6905 13.0652V12.6334H19.1757L24.9547 25.1647L30.0391 12.6418H37.1728V13.0652Z" fill="black"/>
</g>
<defs>
<clipPath id="clip0">
<rect width="38.4121" height="37.1739" fill="white" transform="translate(5.25989 4.46106)"/>
</clipPath>
</defs>
</svg>
