<svg width="100%" height="100%" viewBox="0 0 126 122" fill="none" xmlns="http://www.w3.org/2000/svg">
<rect width="112.966" height="108.929" rx="20" fill="#CFC590"/>
<g clip-path="url(#clip0)">
<rect x="13.0344" y="13.0713" width="112.966" height="108.929" rx="20" fill="white"/>
<path d="M13 13V124.152H125.966V13H13ZM106.852 39.3241L100.8 45.0305C100.271 45.4275 100.019 46.0726 100.12 46.6928V88.6972C100.019 89.3423 100.271 89.9874 100.8 90.3595L106.726 96.066V97.3313H76.9718V96.1156L83.0991 90.2603C83.7043 89.6648 83.7043 89.4912 83.7043 88.598V54.6322L66.6586 97.2073H64.364L44.5194 54.6322V83.1644C44.3429 84.3554 44.7716 85.5711 45.6289 86.4395L53.597 95.9419V97.2073H30.9534V95.9419L38.9216 86.4395C39.7789 85.5711 40.1571 84.3554 39.9554 83.1644V50.1663C40.0563 49.2483 39.7032 48.3551 38.9972 47.7349L31.9116 39.3241V38.0587H53.9248L70.92 74.7785L85.8728 38.0835H106.852V39.3241Z" fill="#333333"/>
</g>
<defs>
<clipPath id="clip0">
<rect x="13.0344" y="13.0713" width="112.966" height="108.929" rx="20" fill="white"/>
</clipPath>
</defs>
</svg>
