<svg width="100%" height="100%" viewBox="0 0 344 120" fill="none" xmlns="http://www.w3.org/2000/svg">
<rect y="8" width="336" height="112" rx="20" fill="#CFC590"/>
<g clip-path="url(#clip0)">
<path d="M317.243 0.000119859H34.7721C33.7424 0.000119859 32.7251 0.00011986 31.6982 0.00571986C30.8386 0.0113199 29.9858 0.0275879 29.1179 0.0412799C27.2325 0.0634049 25.3515 0.228813 23.4912 0.536068C21.6336 0.850011 19.8342 1.44188 18.1538 2.29167C16.4755 3.14864 14.942 4.26219 13.6089 5.59192C12.2688 6.9179 11.1517 8.45057 10.3006 10.131C9.44717 11.808 8.85539 13.6051 8.54571 15.4603C8.23308 17.313 8.06486 19.1872 8.04254 21.0659C8.01648 21.9243 8.01373 22.7857 8 23.6443V88.3642C8.01373 89.2336 8.01648 90.0758 8.04254 90.9455C8.06486 92.8241 8.23309 94.6982 8.54571 96.5508C8.85453 98.407 9.44635 100.205 10.3006 101.883C11.1513 103.558 12.2686 105.084 13.6089 106.403C14.9369 107.739 16.4715 108.853 18.1538 109.703C19.8342 110.555 21.6334 111.151 23.4912 111.47C25.3518 111.774 27.2326 111.94 29.1179 111.965C29.9858 111.984 30.8386 111.995 31.6982 111.995C32.7251 112 33.7425 112 34.7721 112H317.243C318.252 112 319.278 112 320.287 111.995C321.142 111.995 322.02 111.984 322.875 111.965C324.757 111.941 326.634 111.776 328.491 111.47C330.355 111.148 332.161 110.553 333.849 109.703C335.53 108.852 337.063 107.738 338.39 106.403C339.727 105.079 340.846 103.554 341.708 101.883C342.556 100.204 343.142 98.406 343.446 96.5508C343.759 94.6979 343.933 92.8243 343.967 90.9455C343.978 90.0758 343.978 89.2336 343.978 88.3642C344 87.347 344 86.3353 344 85.3016V26.7013C344 25.6759 344 24.6587 343.978 23.6443C343.978 22.7857 343.978 21.9243 343.967 21.0658C343.933 19.1869 343.759 17.3132 343.446 15.4602C343.141 13.6061 342.555 11.8091 341.708 10.1309C339.974 6.76267 337.226 4.02099 333.849 2.29142C332.161 1.44371 330.355 0.851993 328.491 0.535816C326.635 0.227208 324.757 0.0617416 322.875 0.0408879C322.02 0.0272239 321.142 0.0108159 320.287 0.00535586C319.278 -0.000244141 318.252 -0.000244141 317.243 -0.000244141V0.000119859Z" fill="#333333"/>
<path d="M31.712 109.55C30.8565 109.55 30.0217 109.539 29.1729 109.52C27.4146 109.497 25.6604 109.344 23.9246 109.063C22.3061 108.785 20.7383 108.268 19.2727 107.529C17.8206 106.796 16.4962 105.835 15.3501 104.683C14.1875 103.544 13.2196 102.223 12.4847 100.773C11.7417 99.3126 11.2275 97.7477 10.96 96.1324C10.6712 94.3967 10.5149 92.6416 10.4925 90.8824C10.4747 90.2918 10.4514 88.3257 10.4514 88.3257V23.6441C10.4514 23.6441 10.4762 21.7082 10.4927 21.1394C10.5141 19.3829 10.6695 17.6306 10.9574 15.8976C11.2254 14.2779 11.74 12.7084 12.4834 11.2437C13.2156 9.79419 14.1782 8.47236 15.3338 7.32946C16.4881 6.17569 17.8168 5.20964 19.2714 4.46654C20.7335 3.72981 22.2984 3.2164 23.9136 2.94351C25.6551 2.65949 27.4154 2.50594 29.1798 2.48414L31.7134 2.44995H320.273L322.837 2.48551C324.585 2.50623 326.33 2.65841 328.055 2.94076C329.687 3.21708 331.268 3.73407 332.747 4.47474C335.661 5.97231 338.032 8.34161 339.528 11.2505C340.259 12.7052 340.766 14.2618 341.031 15.8675C341.322 17.6147 341.485 19.3808 341.519 21.1517C341.527 21.9447 341.527 22.7964 341.527 23.6441C341.549 24.6941 341.549 25.6935 341.549 26.7011V85.3014C341.549 86.3186 341.549 87.3112 341.527 88.312C341.527 89.2225 341.527 90.0566 341.516 90.9151C341.483 92.6544 341.323 94.389 341.036 96.1049C340.774 97.7319 340.262 99.309 339.52 100.781C338.78 102.216 337.817 103.525 336.668 104.661C335.521 105.819 334.194 106.786 332.739 107.524C331.264 108.269 329.685 108.788 328.055 109.063C326.32 109.346 324.565 109.499 322.807 109.52C321.984 109.539 321.123 109.55 320.287 109.55L317.243 109.556L31.712 109.55Z" fill="#333333"/>
<path d="M77.5476 56.8415C77.5778 54.5045 78.2003 52.213 79.3572 50.1803C80.5141 48.1477 82.1678 46.4398 84.1645 45.2157C82.896 43.4093 81.2227 41.9227 79.2773 40.8739C77.332 39.8252 75.1682 39.2432 72.9578 39.1742C68.2428 38.6807 63.6717 41.9878 61.269 41.9878C58.8198 41.9878 55.1204 39.2232 51.1368 39.305C48.5601 39.388 46.0489 40.1352 43.8479 41.4737C41.6469 42.8123 39.8311 44.6966 38.5775 46.943C33.1471 56.3186 37.1977 70.0975 42.3996 77.676C45.0022 81.387 48.0439 85.5323 52.0239 85.3853C55.9185 85.2242 57.3731 82.9087 62.0743 82.9087C66.7319 82.9087 68.0966 85.3853 72.1573 85.2918C76.3365 85.2242 78.9696 81.5643 81.4809 77.8182C83.3508 75.174 84.7898 72.2516 85.7444 69.1592C83.3164 68.1351 81.2444 66.421 79.7868 64.2306C78.3292 62.0402 77.5504 59.4703 77.5476 56.8415V56.8415Z" fill="white"/>
<path d="M69.8779 34.1902C72.1565 31.4625 73.2791 27.9564 73.0073 24.4165C69.526 24.7811 66.3103 26.4403 64.0008 29.0634C62.8717 30.3449 62.0069 31.8357 61.4558 33.4506C60.9048 35.0656 60.6784 36.773 60.7894 38.4753C62.5307 38.4932 64.2533 38.1168 65.8276 37.3746C67.4019 36.6323 68.7867 35.5435 69.8779 34.1902Z" fill="white"/>
<path d="M126.779 75.9908H113.488L110.296 85.3888H104.667L117.256 50.6184H123.105L135.693 85.3888H129.968L126.779 75.9908ZM114.865 71.654H125.4L120.206 56.4017H120.061L114.865 71.654Z" fill="white"/>
<path d="M162.881 72.715C162.881 80.5928 158.653 85.6541 152.272 85.6541C150.655 85.7384 149.048 85.3671 147.633 84.5827C146.219 83.7984 145.054 82.6326 144.273 81.2189H144.152V93.7752H138.934V60.0385H143.985V64.2549H144.081C144.898 62.848 146.082 61.6882 147.508 60.8991C148.933 60.1099 150.546 59.7208 152.176 59.7732C158.628 59.7733 162.881 64.8592 162.881 72.715ZM157.517 72.715C157.517 67.5826 154.857 64.2084 150.799 64.2084C146.812 64.2084 144.131 67.6537 144.131 72.715C144.131 77.8229 146.812 81.2436 150.799 81.2436C154.858 81.2436 157.517 77.894 157.517 72.715Z" fill="white"/>
<path d="M190.861 72.715C190.861 80.5928 186.632 85.6541 180.252 85.6541C178.635 85.7384 177.028 85.3671 175.613 84.5827C174.199 83.7983 173.034 82.6326 172.253 81.2189H172.132V93.7751H166.914V60.0384H171.965V64.2549H172.061C172.878 62.848 174.062 61.6882 175.488 60.8991C176.913 60.1099 178.526 59.7208 180.156 59.7732C186.608 59.7732 190.861 64.8591 190.861 72.715ZM185.497 72.715C185.497 67.5826 182.837 64.2084 178.779 64.2084C174.792 64.2084 172.111 67.6537 172.111 72.715C172.111 77.8228 174.792 81.2435 178.779 81.2435C182.837 81.2435 185.497 77.8939 185.497 72.715H185.497Z" fill="white"/>
<path d="M209.353 75.7011C209.74 79.1491 213.099 81.4131 217.689 81.4131C222.087 81.4131 225.252 79.149 225.252 76.04C225.252 73.3412 223.343 71.7252 218.824 70.6178L214.305 69.5322C207.903 67.99 204.93 65.0041 204.93 60.1587C204.93 54.1595 210.173 50.0388 217.618 50.0388C224.986 50.0388 230.036 54.1595 230.207 60.1587H224.939C224.624 56.6888 221.747 54.5943 217.544 54.5943C213.34 54.5943 210.464 56.7135 210.464 59.7978C210.464 62.256 212.301 63.7025 216.795 64.8098L220.637 65.7505C227.791 67.4376 230.763 70.3033 230.763 75.3891C230.763 81.8942 225.567 85.9684 217.302 85.9684C209.57 85.9684 204.349 81.9899 204.012 75.7008L209.353 75.7011Z" fill="white"/>
<path d="M242.025 54.0393V60.0385H246.859V64.1592H242.025V78.1346C242.025 80.3057 242.992 81.3174 245.118 81.3174C245.691 81.3075 246.264 81.2673 246.834 81.197V85.2931C245.879 85.4711 244.908 85.5518 243.936 85.5337C238.789 85.5337 236.782 83.606 236.782 78.6896V64.1592H233.085V60.0385H236.782V54.0393H242.025Z" fill="white"/>
<path d="M249.659 72.7151C249.659 64.7389 254.369 59.7268 261.715 59.7268C269.086 59.7268 273.775 64.7388 273.775 72.7151C273.775 80.7131 269.111 85.7034 261.715 85.7034C254.323 85.7034 249.659 80.7131 249.659 72.7151ZM268.458 72.7151C268.458 67.2436 265.944 64.0143 261.715 64.0143C257.487 64.0143 254.975 67.2682 254.975 72.7151C254.975 78.2084 257.487 81.4131 261.715 81.4131C265.944 81.4131 268.458 78.2084 268.458 72.7151H268.458Z" fill="white"/>
<path d="M278.077 60.0387H283.054V64.3535H283.174C283.511 63.0059 284.303 61.815 285.416 60.9809C286.53 60.1468 287.898 59.7205 289.289 59.7734C289.891 59.7714 290.49 59.8365 291.077 59.9676V64.8348C290.318 64.6035 289.526 64.4972 288.732 64.5203C287.974 64.4897 287.219 64.623 286.517 64.911C285.816 65.1991 285.185 65.6352 284.668 66.1893C284.152 66.7434 283.762 67.4024 283.525 68.1211C283.287 68.8397 283.209 69.601 283.295 70.3527V85.3891H278.077L278.077 60.0387Z" fill="white"/>
<path d="M315.136 77.9432C314.434 82.5451 309.94 85.7034 304.19 85.7034C296.794 85.7034 292.204 80.7623 292.204 72.8354C292.204 64.8838 296.819 59.7268 303.97 59.7268C311.004 59.7268 315.427 64.5448 315.427 72.2311V74.0139H297.472V74.3284C297.389 75.2613 297.506 76.2012 297.815 77.0855C298.125 77.9699 298.619 78.7785 299.266 79.4576C299.913 80.1367 300.697 80.6709 301.567 81.0245C302.436 81.3782 303.372 81.5433 304.31 81.5088C305.543 81.624 306.781 81.3392 307.839 80.6968C308.896 80.0544 309.718 79.0886 310.181 77.9432L315.136 77.9432ZM297.496 70.3772H310.206C310.253 69.5383 310.125 68.6989 309.831 67.9115C309.537 67.1241 309.083 66.4058 308.498 65.8016C307.912 65.1975 307.208 64.7205 306.429 64.4007C305.65 64.0809 304.813 63.9252 303.97 63.9432C303.121 63.9382 302.278 64.101 301.492 64.4222C300.706 64.7435 299.991 65.2169 299.389 65.8151C298.787 66.4133 298.31 67.1244 297.985 67.9074C297.66 68.6904 297.494 69.5298 297.496 70.3772V70.3772Z" fill="white"/>
<path d="M114.211 24.446C115.305 24.3677 116.402 24.5325 117.425 24.9285C118.447 25.3245 119.369 25.9419 120.123 26.736C120.877 27.5302 121.445 28.4813 121.786 29.5209C122.127 30.5604 122.232 31.6625 122.094 32.7475C122.094 38.085 119.201 41.1531 114.211 41.1531H108.159V24.446H114.211ZM110.761 38.7904H113.92C114.702 38.837 115.484 38.7091 116.21 38.4162C116.936 38.1233 117.587 37.6726 118.116 37.0971C118.646 36.5215 119.04 35.8355 119.269 35.0889C119.499 34.3424 119.559 33.5541 119.445 32.7816C119.551 32.012 119.485 31.2287 119.252 30.4876C119.018 29.7465 118.623 29.0661 118.095 28.4951C117.567 27.9241 116.919 27.4767 116.197 27.1848C115.475 26.8929 114.698 26.7639 113.92 26.8069H110.761V38.7904Z" fill="white"/>
<path d="M125.034 34.8434C124.954 34.0148 125.049 33.1788 125.313 32.389C125.576 31.5992 126.002 30.8731 126.564 30.2571C127.125 29.6412 127.809 29.149 128.573 28.8122C129.336 28.4755 130.161 28.3015 130.996 28.3015C131.831 28.3015 132.656 28.4755 133.42 28.8122C134.183 29.149 134.867 29.6412 135.429 30.2571C135.99 30.8731 136.416 31.5992 136.68 32.389C136.943 33.1788 137.038 34.0148 136.959 34.8434C137.04 35.6728 136.946 36.5099 136.683 37.301C136.42 38.0921 135.994 38.8196 135.433 39.4367C134.871 40.0539 134.186 40.5471 133.422 40.8846C132.658 41.2221 131.832 41.3964 130.996 41.3964C130.16 41.3964 129.334 41.2221 128.57 40.8846C127.806 40.5471 127.121 40.0539 126.559 39.4367C125.998 38.8196 125.572 38.0921 125.309 37.301C125.046 36.5099 124.953 35.6728 125.034 34.8434V34.8434ZM134.392 34.8434C134.392 32.1104 133.161 30.5121 131 30.5121C128.831 30.5121 127.611 32.1104 127.611 34.8434C127.611 37.5983 128.831 39.1842 131 39.1842C133.161 39.1842 134.392 37.5873 134.392 34.8434H134.392Z" fill="white"/>
<path d="M152.81 41.1531H150.222L147.609 31.8672H147.411L144.809 41.1531H142.245L138.76 28.5449H141.291L143.556 38.1657H143.742L146.342 28.5449H148.736L151.335 38.1657H151.532L153.786 28.5449H156.282L152.81 41.1531Z" fill="white"/>
<path d="M159.213 28.5451H161.615V30.548H161.802C162.118 29.8286 162.651 29.2256 163.328 28.8229C164.004 28.4203 164.79 28.2381 165.575 28.3017C166.19 28.2556 166.808 28.3481 167.382 28.5724C167.957 28.7966 168.473 29.1469 168.893 29.5973C169.314 30.0476 169.627 30.5865 169.81 31.174C169.993 31.7615 170.041 32.3826 169.951 32.9912V41.1532H167.456V33.616C167.456 31.5898 166.573 30.5822 164.727 30.5822C164.31 30.5628 163.893 30.6337 163.505 30.79C163.117 30.9463 162.768 31.1844 162.482 31.4879C162.195 31.7914 161.977 32.1531 161.844 32.5482C161.71 32.9434 161.664 33.3627 161.708 33.7773V41.1533H159.213L159.213 28.5451Z" fill="white"/>
<path d="M173.927 23.623H176.422V41.1531H173.927V23.623Z" fill="white"/>
<path d="M179.891 34.8436C179.812 34.015 179.907 33.1789 180.17 32.3891C180.434 31.5993 180.86 30.8731 181.422 30.2572C181.983 29.6412 182.667 29.149 183.431 28.8123C184.194 28.4755 185.02 28.3015 185.854 28.3015C186.689 28.3015 187.515 28.4755 188.278 28.8123C189.041 29.149 189.726 29.6412 190.287 30.2572C190.849 30.8731 191.275 31.5993 191.538 32.3891C191.802 33.1789 191.897 34.015 191.818 34.8436C191.899 35.6731 191.805 36.5102 191.542 37.3013C191.279 38.0924 190.853 38.8198 190.291 39.437C189.73 40.0541 189.045 40.5473 188.281 40.8848C187.517 41.2222 186.69 41.3966 185.854 41.3966C185.019 41.3966 184.192 41.2222 183.428 40.8848C182.664 40.5473 181.979 40.0541 181.418 39.437C180.856 38.8198 180.43 38.0924 180.167 37.3013C179.904 36.5102 179.81 35.6731 179.891 34.8436V34.8436ZM189.25 34.8436C189.25 32.1106 188.019 30.5124 185.858 30.5124C183.689 30.5124 182.469 32.1106 182.469 34.8436C182.469 37.5985 183.689 39.1845 185.858 39.1845C188.019 39.1844 189.25 37.5876 189.25 34.8436H189.25Z" fill="white"/>
<path d="M194.444 37.5874C194.444 35.3179 196.139 34.0095 199.147 33.8236L202.572 33.6267V32.5384C202.572 31.2068 201.689 30.4548 199.983 30.4548C198.59 30.4548 197.625 30.9648 197.348 31.8562H194.932C195.187 29.6906 197.23 28.3015 200.098 28.3015C203.268 28.3015 205.056 29.8751 205.056 32.5384V41.1531H202.654V39.3812H202.457C202.056 40.0168 201.493 40.5349 200.826 40.8827C200.159 41.2305 199.411 41.3955 198.659 41.3608C198.128 41.4159 197.592 41.3594 197.084 41.195C196.577 41.0307 196.109 40.7621 195.712 40.4066C195.315 40.0511 194.997 39.6165 194.779 39.1309C194.56 38.6454 194.446 38.1196 194.444 37.5874V37.5874ZM202.572 36.5101V35.456L199.484 35.6529C197.743 35.7691 196.953 36.3597 196.953 37.4712C196.953 38.606 197.94 39.2663 199.298 39.2663C199.696 39.3065 200.097 39.2664 200.479 39.1486C200.861 39.0307 201.215 38.8375 201.521 38.5803C201.826 38.3231 202.077 38.0073 202.257 37.6517C202.438 37.296 202.545 36.9078 202.572 36.5101V36.5101Z" fill="white"/>
<path d="M208.336 34.8436C208.336 30.8596 210.389 28.3358 213.584 28.3358C214.374 28.2995 215.158 28.4882 215.845 28.8799C216.531 29.2716 217.092 29.8501 217.461 30.5478H217.648V23.623H220.143V41.1531H217.752V39.1611H217.554C217.157 39.8541 216.577 40.4254 215.877 40.8131C215.177 41.2009 214.384 41.3903 213.584 41.3609C210.367 41.361 208.336 38.8372 208.336 34.8436ZM210.913 34.8436C210.913 37.5178 212.177 39.127 214.291 39.127C216.394 39.127 217.694 37.4946 217.694 34.8545C217.694 32.2268 216.381 30.5711 214.291 30.5711C212.191 30.5711 210.913 32.1912 210.913 34.8436H210.913Z" fill="white"/>
<path d="M230.467 34.8434C230.387 34.0148 230.482 33.1788 230.746 32.389C231.009 31.5992 231.436 30.8731 231.997 30.2571C232.558 29.6412 233.243 29.149 234.006 28.8122C234.769 28.4755 235.595 28.3015 236.43 28.3015C237.264 28.3015 238.09 28.4755 238.853 28.8122C239.616 29.149 240.301 29.6412 240.862 30.2571C241.423 30.8731 241.85 31.5992 242.113 32.389C242.377 33.1788 242.472 34.0148 242.392 34.8434C242.473 35.6728 242.379 36.5099 242.116 37.301C241.854 38.0921 241.428 38.8196 240.866 39.4367C240.305 40.0539 239.62 40.5471 238.856 40.8846C238.092 41.2221 237.265 41.3964 236.43 41.3964C235.594 41.3964 234.767 41.2221 234.003 40.8846C233.239 40.5471 232.554 40.0539 231.993 39.4367C231.431 38.8196 231.005 38.0921 230.743 37.301C230.48 36.5099 230.386 35.6728 230.467 34.8434V34.8434ZM239.826 34.8434C239.826 32.1104 238.594 30.5121 236.434 30.5121C234.265 30.5121 233.045 32.1104 233.045 34.8434C233.045 37.5983 234.265 39.1842 236.434 39.1842C238.594 39.1842 239.826 37.5873 239.826 34.8434Z" fill="white"/>
<path d="M245.74 28.5451H248.142V30.548H248.328C248.645 29.8286 249.178 29.2256 249.854 28.8229C250.531 28.4203 251.316 28.2381 252.101 28.3017C252.717 28.2556 253.334 28.3481 253.909 28.5724C254.483 28.7966 255 29.1469 255.42 29.5973C255.84 30.0476 256.154 30.5865 256.337 31.174C256.52 31.7615 256.568 32.3826 256.478 32.9912V41.1532H253.982V33.616C253.982 31.5898 253.099 30.5822 251.254 30.5822C250.836 30.5628 250.419 30.6337 250.032 30.79C249.644 30.9463 249.295 31.1844 249.008 31.4879C248.721 31.7914 248.504 32.1531 248.37 32.5482C248.237 32.9434 248.191 33.3627 248.235 33.7773V41.1533H245.74V28.5451Z" fill="white"/>
<path d="M270.578 25.4058V28.6022H273.317V30.6982H270.578V37.1814C270.578 38.5021 271.123 39.0804 272.365 39.0804C272.683 39.0794 273.001 39.0602 273.317 39.0229V41.0956C272.869 41.1755 272.415 41.2181 271.96 41.2227C269.185 41.2227 268.08 40.2493 268.08 37.8184V30.698H266.072V28.6021H268.08V25.4058H270.578Z" fill="white"/>
<path d="M276.725 23.623H279.198V30.5711H279.396C279.727 29.845 280.276 29.2386 280.965 28.8344C281.655 28.4302 282.453 28.248 283.251 28.3125C283.863 28.2793 284.475 28.3812 285.043 28.6109C285.611 28.8406 286.121 29.1925 286.537 29.6415C286.953 30.0904 287.264 30.6254 287.449 31.2081C287.633 31.7909 287.687 32.4071 287.605 33.0129V41.1531H285.108V33.6267C285.108 31.6129 284.167 30.5929 282.404 30.5929C281.975 30.5579 281.544 30.6167 281.14 30.7652C280.736 30.9138 280.37 31.1485 280.067 31.4529C279.763 31.7574 279.531 32.1243 279.384 32.5279C279.238 32.9314 279.182 33.362 279.22 33.7894V41.1531H276.725L276.725 23.623Z" fill="white"/>
<path d="M302.155 37.749C301.816 38.9013 301.081 39.898 300.08 40.5649C299.078 41.2317 297.873 41.5261 296.676 41.3966C295.843 41.4186 295.015 41.2595 294.25 40.9304C293.485 40.6013 292.801 40.1101 292.245 39.4909C291.69 38.8717 291.276 38.1394 291.032 37.3447C290.789 36.55 290.722 35.712 290.836 34.8888C290.725 34.0632 290.793 33.2233 291.036 32.4263C291.279 31.6292 291.69 30.8934 292.243 30.2688C292.796 29.6442 293.477 29.1453 294.24 28.806C295.003 28.4666 295.83 28.2946 296.665 28.3017C300.183 28.3017 302.306 30.6985 302.306 34.6577V35.526H293.378V35.6654C293.338 36.1281 293.397 36.5938 293.549 37.0327C293.701 37.4716 293.943 37.874 294.26 38.2141C294.577 38.5542 294.962 38.8244 295.39 39.0075C295.818 39.1907 296.279 39.2826 296.745 39.2774C297.342 39.3489 297.946 39.2417 298.482 38.9695C299.018 38.6973 299.46 38.2725 299.753 37.7489L302.155 37.749ZM293.377 33.6857H299.764C299.795 33.2625 299.737 32.8375 299.594 32.4379C299.451 32.0383 299.226 31.6729 298.933 31.3653C298.64 31.0577 298.285 30.8147 297.892 30.6518C297.5 30.4889 297.077 30.4098 296.651 30.4195C296.22 30.4141 295.792 30.4949 295.392 30.6571C294.992 30.8194 294.629 31.0598 294.324 31.3642C294.019 31.6686 293.778 32.0308 293.615 32.4295C293.453 32.8282 293.372 33.2554 293.378 33.6857H293.377Z" fill="white"/>
</g>
<defs>
<clipPath id="clip0">
<rect width="336" height="112" fill="white" transform="translate(8)"/>
</clipPath>
</defs>
</svg>
