<svg width="100%" height="100%" viewBox="0 0 114 40" fill="none" xmlns="http://www.w3.org/2000/svg">
<rect y="2" width="112" height="37.3333" rx="6" fill="#CFC590"/>
<g clip-path="url(#clip0)">
<path d="M105.081 -7.36978e-07H10.924C10.5808 -7.36978e-07 10.2417 -7.36924e-07 9.8994 0.00186593C9.61286 0.0037326 9.3286 0.00915526 9.03931 0.0137193C8.41083 0.0210943 7.78382 0.0762304 7.16375 0.178649C6.54454 0.283296 5.94474 0.480587 5.38461 0.763849C4.82517 1.04951 4.314 1.42069 3.86963 1.86393C3.42293 2.30593 3.05057 2.81681 2.76687 3.37695C2.48239 3.93597 2.28513 4.53501 2.1819 5.15338C2.07769 5.77097 2.02162 6.39569 2.01418 7.02191C2.00549 7.30807 2.00458 7.59519 2 7.88138V29.4547C2.00458 29.7445 2.00549 30.0252 2.01418 30.3151C2.02162 30.9413 2.0777 31.566 2.1819 32.1836C2.28484 32.8023 2.48212 33.4017 2.76687 33.9609C3.05044 34.5192 3.42286 35.0281 3.86963 35.4676C4.31231 35.9128 4.82382 36.2842 5.38461 36.5677C5.94473 36.8517 6.54448 37.0502 7.16375 37.1565C7.78393 37.2581 8.41087 37.3132 9.03931 37.3215C9.3286 37.3278 9.61286 37.3315 9.8994 37.3315C10.2417 37.3333 10.5808 37.3333 10.924 37.3333H105.081C105.417 37.3333 105.759 37.3333 106.096 37.3315C106.381 37.3315 106.673 37.3278 106.958 37.3215C107.586 37.3137 108.211 37.2585 108.83 37.1565C109.452 37.0495 110.054 36.851 110.616 36.5677C111.177 36.2841 111.688 35.9127 112.13 35.4676C112.576 35.0263 112.949 34.5179 113.236 33.9609C113.519 33.4013 113.714 32.8019 113.815 32.1836C113.92 31.5659 113.978 30.9414 113.989 30.3151C113.993 30.0252 113.993 29.7445 113.993 29.4547C114 29.1156 114 28.7784 114 28.4338V8.90039C114 8.55859 114 8.21953 113.993 7.88138C113.993 7.59519 113.993 7.30807 113.989 7.02188C113.978 6.39559 113.92 5.77102 113.815 5.15334C113.714 4.53533 113.518 3.93634 113.236 3.37691C112.658 2.25418 111.742 1.34029 110.616 0.763765C110.054 0.481195 109.452 0.283957 108.83 0.178565C108.212 0.0756952 107.586 0.0205398 106.958 0.0135886C106.673 0.00903393 106.381 0.0035646 106.096 0.0017446C105.759 -0.00012207 105.417 -0.00012207 105.081 -0.00012207V-7.36978e-07Z" fill="#A6A6A6"/>
<path d="M9.90398 36.5167C9.61881 36.5167 9.34054 36.513 9.05761 36.5067C8.47149 36.499 7.88675 36.4482 7.30818 36.3544C6.76869 36.2618 6.24606 36.0894 5.75755 35.8431C5.27351 35.5987 4.83203 35.2784 4.45002 34.8942C4.06248 34.5146 3.73983 34.0743 3.49487 33.5908C3.24721 33.1042 3.07581 32.5826 2.98665 32.0441C2.89036 31.4656 2.83826 30.8805 2.83081 30.2941C2.82488 30.0973 2.81711 29.4419 2.81711 29.4419V7.88137C2.81711 7.88137 2.82538 7.23605 2.83086 7.04646C2.83799 6.46097 2.88979 5.87686 2.98579 5.2992C3.07511 4.75928 3.24664 4.23615 3.49444 3.7479C3.7385 3.26473 4.05936 2.82412 4.44456 2.44315C4.82934 2.05856 5.27223 1.73655 5.75709 1.48885C6.24448 1.24327 6.76612 1.07213 7.30452 0.981169C7.88499 0.886497 8.47177 0.835313 9.05991 0.828046L9.90444 0.81665H106.091L106.946 0.828504C107.528 0.83541 108.11 0.886137 108.685 0.980254C109.229 1.07236 109.756 1.24469 110.249 1.49158C111.22 1.99077 112.011 2.78054 112.509 3.75018C112.753 4.23506 112.922 4.75392 113.01 5.28917C113.107 5.87158 113.162 6.46027 113.173 7.05057C113.176 7.31489 113.176 7.59881 113.176 7.88137C113.183 8.23137 113.183 8.5645 113.183 8.90037V28.4338C113.183 28.7729 113.183 29.1037 113.176 29.4373C113.176 29.7408 113.176 30.0189 113.172 30.305C113.161 30.8848 113.107 31.463 113.012 32.035C112.925 32.5773 112.754 33.103 112.507 33.5936C112.26 34.0719 111.939 34.5084 111.556 34.887C111.174 35.2732 110.731 35.5954 110.246 35.8413C109.755 36.0896 109.228 36.2625 108.685 36.3544C108.106 36.4487 107.522 36.4996 106.936 36.5067C106.661 36.513 106.374 36.5167 106.096 36.5167L105.081 36.5185L9.90398 36.5167Z" fill="black"/>
<path d="M25.1825 18.9473C25.1926 18.1683 25.4001 17.4045 25.7857 16.7269C26.1714 16.0494 26.7226 15.4801 27.3881 15.0721C26.9653 14.4699 26.4076 13.9744 25.7591 13.6248C25.1107 13.2752 24.3894 13.0812 23.6526 13.0582C22.0809 12.8937 20.5572 13.9961 19.7563 13.9961C18.9399 13.9961 17.7068 13.0746 16.3789 13.1018C15.52 13.1295 14.683 13.3786 13.9493 13.8247C13.2156 14.2709 12.6104 14.899 12.1925 15.6478C10.3824 18.773 11.7326 23.366 13.4665 25.8922C14.334 27.1292 15.3479 28.5109 16.6746 28.4619C17.9728 28.4082 18.4577 27.6364 20.0248 27.6364C21.5773 27.6364 22.0322 28.4619 23.3858 28.4308C24.7788 28.4082 25.6565 27.1883 26.4936 25.9396C27.1169 25.0582 27.5966 24.084 27.9148 23.0532C27.1055 22.7119 26.4148 22.1405 25.9289 21.4104C25.4431 20.6802 25.1835 19.8236 25.1825 18.9473V18.9473Z" fill="white"/>
<path d="M22.6258 11.3968C23.3854 10.4876 23.7596 9.31887 23.669 8.13892C22.5086 8.26046 21.4367 8.81351 20.6668 9.68788C20.2905 10.115 20.0022 10.612 19.8185 11.1503C19.6348 11.6886 19.5593 12.2578 19.5964 12.8252C20.1768 12.8311 20.751 12.7057 21.2758 12.4583C21.8005 12.2109 22.2621 11.8479 22.6258 11.3968Z" fill="white"/>
<path d="M41.593 25.3304H37.1627L36.0988 28.4631H34.2223L38.4186 16.8729H40.3682L44.5644 28.4631H42.6559L41.593 25.3304ZM37.6215 23.8848H41.1332L39.4021 18.8007H39.3536L37.6215 23.8848Z" fill="white"/>
<path d="M53.6269 24.2385C53.6269 26.8644 52.2175 28.5515 50.0906 28.5515C49.5518 28.5796 49.0159 28.4558 48.5444 28.1944C48.0729 27.9329 47.6847 27.5443 47.4244 27.0731H47.3841V31.2585H45.6447V20.0129H47.3284V21.4184H47.3604C47.6327 20.9494 48.0274 20.5629 48.5025 20.2998C48.9777 20.0368 49.5154 19.9071 50.0586 19.9245C52.2092 19.9245 53.6269 21.6198 53.6269 24.2385ZM51.8391 24.2385C51.8391 22.5277 50.9525 21.4029 49.5997 21.4029C48.2707 21.4029 47.3768 22.5514 47.3768 24.2385C47.3768 25.9411 48.2707 27.0813 49.5997 27.0813C50.9525 27.0813 51.8391 25.9648 51.8391 24.2385Z" fill="white"/>
<path d="M62.9535 24.2385C62.9535 26.8644 61.5441 28.5515 59.4172 28.5515C58.8784 28.5796 58.3426 28.4558 57.871 28.1944C57.3995 27.9329 57.0113 27.5443 56.751 27.0731H56.7107V31.2585H54.9714V20.0129H56.655V21.4184H56.687C56.9593 20.9494 57.354 20.5629 57.8291 20.2998C58.3043 20.0368 58.842 19.9071 59.3852 19.9245C61.5359 19.9245 62.9535 21.6198 62.9535 24.2385ZM61.1657 24.2385C61.1657 22.5277 60.2791 21.4029 58.9263 21.4029C57.5974 21.4029 56.7035 22.5514 56.7035 24.2385C56.7035 25.9411 57.5974 27.0813 58.9263 27.0813C60.2791 27.0813 61.1657 25.9648 61.1657 24.2385H61.1657Z" fill="white"/>
<path d="M69.1177 25.2338C69.2465 26.3831 70.3662 27.1378 71.8963 27.1378C73.3624 27.1378 74.4171 26.3831 74.4171 25.3468C74.4171 24.4471 73.781 23.9085 72.2747 23.5393L70.7684 23.1775C68.6342 22.6634 67.6434 21.6681 67.6434 20.053C67.6434 18.0533 69.391 16.6797 71.8725 16.6797C74.3285 16.6797 76.0121 18.0533 76.0688 20.053H74.3129C74.2078 18.8964 73.249 18.1982 71.8478 18.1982C70.4466 18.1982 69.4878 18.9046 69.4878 19.9327C69.4878 20.7521 70.1002 21.2343 71.5983 21.6034L72.8788 21.9169C75.2635 22.4793 76.2543 23.4345 76.2543 25.1298C76.2543 27.2981 74.5222 28.6562 71.7674 28.6562C69.1898 28.6562 67.4496 27.33 67.3371 25.2337L69.1177 25.2338Z" fill="white"/>
<path d="M80.0082 18.0132V20.0129H81.6196V21.3865H80.0082V26.045C80.0082 26.7687 80.3308 27.1059 81.0392 27.1059C81.2305 27.1026 81.4215 27.0892 81.6113 27.0658V28.4311C81.2929 28.4905 80.9692 28.5173 80.6452 28.5113C78.9296 28.5113 78.2606 27.8688 78.2606 26.2299V21.3865H77.0285V20.0129H78.2605V18.0132H80.0082Z" fill="white"/>
<path d="M82.5528 24.2385C82.5528 21.5798 84.1231 19.9091 86.5718 19.9091C89.0286 19.9091 90.5916 21.5797 90.5916 24.2385C90.5916 26.9045 89.0369 28.5679 86.5718 28.5679C84.1075 28.5679 82.5528 26.9045 82.5528 24.2385ZM88.8193 24.2385C88.8193 22.4147 87.9812 21.3382 86.5717 21.3382C85.1623 21.3382 84.3251 22.4229 84.3251 24.2385C84.3251 26.0696 85.1623 27.1378 86.5717 27.1378C87.9812 27.1378 88.8193 26.0696 88.8193 24.2385H88.8193Z" fill="white"/>
<path d="M92.0257 20.013H93.6846V21.4513H93.7249C93.8371 21.0021 94.101 20.6051 94.4722 20.3271C94.8434 20.049 95.2992 19.9069 95.7631 19.9246C95.9636 19.9239 96.1635 19.9456 96.3591 19.9893V21.6117C96.106 21.5346 95.842 21.4992 95.5775 21.5069C95.3248 21.4966 95.0729 21.5411 94.8391 21.6371C94.6053 21.7331 94.395 21.8785 94.2228 22.0632C94.0506 22.2479 93.9206 22.4675 93.8415 22.7071C93.7625 22.9467 93.7364 23.2004 93.765 23.451V28.4631H92.0257L92.0257 20.013Z" fill="white"/>
<path d="M104.379 25.9812C104.145 27.5152 102.647 28.5679 100.73 28.5679C98.2647 28.5679 96.7347 26.9209 96.7347 24.2786C96.7347 21.6281 98.273 19.9091 100.657 19.9091C103.001 19.9091 104.475 21.515 104.475 24.0772V24.6714H98.4905V24.7762C98.4629 25.0872 98.5019 25.4005 98.6051 25.6953C98.7082 25.9901 98.873 26.2596 99.0886 26.486C99.3042 26.7124 99.5656 26.8904 99.8556 27.0083C100.145 27.1262 100.457 27.1812 100.77 27.1697C101.181 27.2081 101.594 27.1132 101.946 26.8991C102.299 26.6849 102.573 26.363 102.727 25.9812L104.379 25.9812ZM98.4987 23.4592H102.735C102.751 23.1796 102.708 22.8997 102.61 22.6373C102.512 22.3748 102.361 22.1354 102.166 21.934C101.971 21.7326 101.736 21.5736 101.476 21.467C101.216 21.3604 100.938 21.3085 100.657 21.3145C100.373 21.3128 100.093 21.3671 99.8306 21.4742C99.5685 21.5813 99.3302 21.7391 99.1296 21.9385C98.929 22.1379 98.7699 22.3749 98.6617 22.6359C98.5534 22.8969 98.498 23.1767 98.4987 23.4592V23.4592Z" fill="white"/>
<path d="M37.4036 8.1489C37.7682 8.1228 38.1341 8.17774 38.4749 8.30974C38.8157 8.44175 39.1229 8.64753 39.3743 8.91224C39.6257 9.17696 39.815 9.49401 39.9286 9.84053C40.0422 10.1871 40.0773 10.5544 40.0314 10.9161C40.0314 12.6952 39.0671 13.7179 37.4036 13.7179H35.3863V8.1489H37.4036ZM36.2537 12.9304H37.3067C37.5672 12.9459 37.828 12.9033 38.07 12.8057C38.312 12.708 38.5291 12.5578 38.7055 12.3659C38.8819 12.1741 39.0132 11.9454 39.0898 11.6966C39.1664 11.4477 39.1865 11.185 39.1484 10.9274C39.1837 10.6709 39.1617 10.4098 39.0839 10.1628C39.0061 9.91576 38.8744 9.68896 38.6984 9.49862C38.5224 9.30829 38.3063 9.15913 38.0657 9.06185C37.8251 8.96456 37.5659 8.92155 37.3067 8.93589H36.2537V12.9304Z" fill="white"/>
<path d="M41.0112 11.6147C40.9847 11.3385 41.0164 11.0598 41.1042 10.7966C41.192 10.5333 41.3341 10.2913 41.5212 10.0859C41.7083 9.88063 41.9364 9.71658 42.1909 9.60433C42.4453 9.49207 42.7205 9.43408 42.9987 9.43408C43.2769 9.43408 43.5521 9.49207 43.8065 9.60433C44.061 9.71658 44.2891 9.88063 44.4762 10.0859C44.6634 10.2913 44.8054 10.5333 44.8932 10.7966C44.9811 11.0598 45.0127 11.3385 44.9862 11.6147C45.0132 11.8912 44.9819 12.1702 44.8943 12.4339C44.8067 12.6976 44.6648 12.9401 44.4776 13.1458C44.2904 13.3515 44.0621 13.5159 43.8074 13.6284C43.5527 13.7409 43.2773 13.799 42.9987 13.799C42.7201 13.799 42.4447 13.7409 42.19 13.6284C41.9353 13.5159 41.707 13.3515 41.5198 13.1458C41.3326 12.9401 41.1907 12.6976 41.1031 12.4339C41.0155 12.1702 40.9842 11.8912 41.0112 11.6147V11.6147ZM44.1307 11.6147C44.1307 10.7037 43.7203 10.171 43.0001 10.171C42.2771 10.171 41.8704 10.7037 41.8704 11.6147C41.8704 12.533 42.2771 13.0616 43.0001 13.0616C43.7203 13.0616 44.1307 12.5293 44.1307 11.6147H44.1307Z" fill="white"/>
<path d="M50.2702 13.7179H49.4074L48.5363 10.6226H48.4705L47.6031 13.7179H46.7485L45.5868 9.51514H46.4304L47.1854 12.7221H47.2475L48.114 9.51514H48.912L49.7784 12.7221H49.8443L50.5956 9.51514H51.4273L50.2702 13.7179Z" fill="white"/>
<path d="M52.4044 9.51519H53.2051V10.1828H53.2672C53.3727 9.94304 53.5505 9.74203 53.7759 9.60781C54.0014 9.47359 54.2632 9.41286 54.5249 9.43407C54.73 9.41869 54.9359 9.44953 55.1274 9.52428C55.3189 9.59904 55.491 9.7158 55.6311 9.86592C55.7712 10.016 55.8757 10.1957 55.9367 10.3915C55.9977 10.5873 56.0138 10.7944 55.9837 10.9972V13.7179H55.1519V11.2055C55.1519 10.5301 54.8576 10.1942 54.2425 10.1942C54.1033 10.1878 53.9643 10.2114 53.835 10.2635C53.7058 10.3156 53.5894 10.395 53.4939 10.4961C53.3983 10.5973 53.3258 10.7179 53.2813 10.8496C53.2368 10.9813 53.2214 11.1211 53.2361 11.2593V13.7179H52.4044L52.4044 9.51519Z" fill="white"/>
<path d="M57.309 7.87451H58.1408V13.7179H57.309V7.87451Z" fill="white"/>
<path d="M59.297 11.6147C59.2705 11.3384 59.3022 11.0598 59.3901 10.7965C59.4779 10.5332 59.62 10.2912 59.8072 10.0858C59.9943 9.88052 60.2224 9.71647 60.4769 9.60421C60.7313 9.49195 61.0065 9.43396 61.2848 9.43396C61.563 9.43396 61.8382 9.49195 62.0926 9.60421C62.3471 9.71647 62.5752 9.88052 62.7624 10.0858C62.9495 10.2912 63.0916 10.5332 63.1794 10.7965C63.2673 11.0598 63.299 11.3384 63.2725 11.6147C63.2995 11.8911 63.2682 12.1702 63.1805 12.4339C63.0929 12.6976 62.9509 12.9401 62.7637 13.1458C62.5765 13.3515 62.3482 13.5159 62.0935 13.6284C61.8388 13.7409 61.5633 13.799 61.2848 13.799C61.0062 13.799 60.7307 13.7409 60.476 13.6284C60.2213 13.5159 59.993 13.3515 59.8058 13.1458C59.6186 12.9401 59.4766 12.6976 59.389 12.4339C59.3014 12.1702 59.27 11.8911 59.297 11.6147V11.6147ZM62.4165 11.6147C62.4165 10.7037 62.0061 10.1709 61.2859 10.1709C60.5629 10.1709 60.1562 10.7037 60.1562 11.6147C60.1562 12.533 60.5629 13.0616 61.2859 13.0616C62.0062 13.0616 62.4165 12.5293 62.4165 11.6147H62.4165Z" fill="white"/>
<path d="M64.1482 12.5294C64.1482 11.7729 64.713 11.3367 65.7157 11.2748L66.8573 11.2091V10.8464C66.8573 10.4025 66.563 10.1519 65.9945 10.1519C65.5302 10.1519 65.2084 10.3218 65.1161 10.619H64.3109C64.3959 9.8971 65.0768 9.43408 66.0329 9.43408C67.0895 9.43408 67.6854 9.95862 67.6854 10.8464V13.7179H66.8847V13.1273H66.8189C66.6853 13.3392 66.4978 13.5119 66.2754 13.6278C66.053 13.7437 65.8037 13.7987 65.553 13.7872C65.3761 13.8055 65.1973 13.7867 65.0281 13.7319C64.8589 13.6771 64.7031 13.5876 64.5707 13.4691C64.4384 13.3506 64.3324 13.2057 64.2596 13.0439C64.1868 12.882 64.1489 12.7068 64.1482 12.5294V12.5294ZM66.8573 12.1703V11.8189L65.8281 11.8845C65.2477 11.9233 64.9845 12.1201 64.9845 12.4906C64.9845 12.8689 65.3135 13.089 65.766 13.089C65.8986 13.1024 66.0325 13.089 66.1598 13.0498C66.2871 13.0105 66.4051 12.9461 66.507 12.8603C66.6088 12.7746 66.6923 12.6694 66.7525 12.5508C66.8126 12.4323 66.8483 12.3028 66.8573 12.1703V12.1703Z" fill="white"/>
<path d="M68.7786 11.6147C68.7786 10.2867 69.4632 9.44542 70.528 9.44542C70.7914 9.43332 71.0528 9.49623 71.2817 9.6268C71.5105 9.75737 71.6974 9.9502 71.8204 10.1828H71.8826V7.87451H72.7143V13.7179H71.9173V13.0539H71.8515C71.719 13.2849 71.5256 13.4753 71.2923 13.6045C71.059 13.7338 70.7947 13.7969 70.528 13.7871C69.4559 13.7872 68.7786 12.9459 68.7786 11.6147ZM69.6378 11.6147C69.6378 12.5061 70.0591 13.0425 70.7638 13.0425C71.4649 13.0425 71.8981 12.4984 71.8981 11.6183C71.8981 10.7424 71.4603 10.1905 70.7638 10.1905C70.0637 10.1905 69.6377 10.7306 69.6377 11.6147H69.6378Z" fill="white"/>
<path d="M76.1556 11.6147C76.1291 11.3385 76.1608 11.0598 76.2486 10.7966C76.3364 10.5333 76.4785 10.2913 76.6656 10.0859C76.8527 9.88063 77.0808 9.71658 77.3353 9.60433C77.5897 9.49207 77.8649 9.43408 78.1431 9.43408C78.4213 9.43408 78.6965 9.49207 78.9509 9.60433C79.2054 9.71658 79.4335 9.88063 79.6206 10.0859C79.8077 10.2913 79.9498 10.5333 80.0376 10.7966C80.1254 11.0598 80.1571 11.3385 80.1306 11.6147C80.1576 11.8912 80.1263 12.1702 80.0387 12.4339C79.9511 12.6976 79.8092 12.9401 79.622 13.1458C79.4348 13.3515 79.2065 13.5159 78.9518 13.6284C78.6971 13.7409 78.4217 13.799 78.1431 13.799C77.8645 13.799 77.5891 13.7409 77.3344 13.6284C77.0797 13.5159 76.8514 13.3515 76.6642 13.1458C76.477 12.9401 76.3351 12.6976 76.2475 12.4339C76.1599 12.1702 76.1286 11.8912 76.1556 11.6147V11.6147ZM79.2751 11.6147C79.2751 10.7037 78.8647 10.171 78.1445 10.171C77.4215 10.171 77.0148 10.7037 77.0148 11.6147C77.0148 12.533 77.4215 13.0616 78.1445 13.0616C78.8647 13.0616 79.2751 12.5293 79.2751 11.6147Z" fill="white"/>
<path d="M81.2466 9.51519H82.0473V10.1828H82.1095C82.2149 9.94304 82.3928 9.74203 82.6182 9.60781C82.8436 9.47359 83.1055 9.41286 83.3672 9.43407C83.5722 9.41869 83.7782 9.44953 83.9696 9.52428C84.1611 9.59904 84.3333 9.7158 84.4734 9.86592C84.6135 10.016 84.7179 10.1957 84.779 10.3915C84.84 10.5873 84.856 10.7944 84.8259 10.9972V13.7179H83.9942V11.2055C83.9942 10.5301 83.6999 10.1942 83.0847 10.1942C82.9455 10.1878 82.8065 10.2114 82.6773 10.2635C82.5481 10.3156 82.4317 10.395 82.3361 10.4961C82.2405 10.5973 82.168 10.7179 82.1235 10.8496C82.079 10.9813 82.0637 11.1211 82.0784 11.2593V13.7179H81.2466V9.51519Z" fill="white"/>
<path d="M89.5258 8.46875V9.53424H90.4389V10.2329H89.5258V12.3939C89.5258 12.8342 89.7077 13.027 90.1218 13.027C90.2278 13.0266 90.3337 13.0202 90.4389 13.0078V13.6987C90.2896 13.7253 90.1382 13.7395 89.9865 13.7411C89.0615 13.7411 88.6932 13.4166 88.6932 12.6063V10.2328H88.0241V9.53421H88.6932V8.46875H89.5258Z" fill="white"/>
<path d="M91.5751 7.87451H92.3995V10.1905H92.4653C92.5759 9.9485 92.7586 9.74635 92.9886 9.61162C93.2185 9.4769 93.4845 9.41615 93.7504 9.43767C93.9544 9.4266 94.1583 9.46056 94.3476 9.53713C94.537 9.61371 94.707 9.731 94.8457 9.88065C94.9843 10.0303 95.0881 10.2086 95.1497 10.4029C95.2112 10.5971 95.2291 10.8025 95.2018 11.0045V13.7179H94.3693V11.2091C94.3693 10.5378 94.0557 10.1978 93.468 10.1978C93.3251 10.1861 93.1813 10.2057 93.0467 10.2552C92.9122 10.3048 92.7901 10.383 92.689 10.4845C92.5879 10.586 92.5103 10.7083 92.4616 10.8428C92.4128 10.9773 92.3942 11.1208 92.4069 11.2633V13.7179H91.5751L91.5751 7.87451Z" fill="white"/>
<path d="M100.052 12.5831C99.9387 12.9672 99.6938 13.2995 99.36 13.5217C99.0261 13.744 98.6245 13.8422 98.2255 13.799C97.9478 13.8063 97.6719 13.7533 97.4168 13.6436C97.1618 13.5339 96.9337 13.3702 96.7485 13.1638C96.5632 12.9574 96.4253 12.7133 96.3441 12.4484C96.263 12.1834 96.2406 11.9041 96.2786 11.6297C96.2416 11.3545 96.2644 11.0746 96.3453 10.8089C96.4263 10.5432 96.5635 10.2979 96.7478 10.0897C96.932 9.88153 97.159 9.71524 97.4133 9.60211C97.6676 9.48898 97.9433 9.43166 98.2218 9.43403C99.3945 9.43403 100.102 10.233 100.102 11.5527V11.8421H97.1259V11.8886C97.1129 12.0428 97.1323 12.1981 97.183 12.3444C97.2336 12.4907 97.3144 12.6248 97.42 12.7382C97.5257 12.8515 97.654 12.9416 97.7966 13.0026C97.9393 13.0637 98.0931 13.0943 98.2483 13.0926C98.4473 13.1164 98.6488 13.0807 98.8274 12.99C99.0059 12.8992 99.1534 12.7576 99.251 12.5831L100.052 12.5831ZM97.1259 11.2287H99.2546C99.2651 11.0876 99.2459 10.946 99.1982 10.8128C99.1505 10.6796 99.0754 10.5578 98.9777 10.4552C98.88 10.3527 98.7618 10.2717 98.6309 10.2174C98.4999 10.1631 98.359 10.1367 98.2172 10.14C98.0733 10.1382 97.9306 10.1651 97.7973 10.2192C97.6641 10.2733 97.543 10.3534 97.4413 10.4549C97.3396 10.5563 97.2593 10.6771 97.2051 10.81C97.151 10.9429 97.124 11.0852 97.1259 11.2287H97.1259Z" fill="white"/>
</g>
<defs>
<clipPath id="clip0">
<rect width="112" height="37.3333" fill="white" transform="translate(2)"/>
</clipPath>
</defs>
</svg>
