<svg width="100%" height="100%" viewBox="0 0 120 120" fill="none" xmlns="http://www.w3.org/2000/svg">
<rect x="8" width="112" height="112" rx="20" fill="#CFC590"/>
<rect y="8" width="112" height="112" rx="20" fill="#333333"/>
<g clip-path="url(#clip0)">
<path d="M73.5371 52.0056C77.7814 52.0056 81.8518 50.4881 84.853 47.7871C87.8542 45.086 89.5402 41.4226 89.5402 37.6028C89.5402 33.7829 87.8542 30.1195 84.853 27.4184C81.8518 24.7174 77.7814 23.2 73.5371 23.2H41.5308C37.289 23.2 33.2209 24.7165 30.2215 27.416C27.2221 30.1154 25.5371 33.7767 25.5371 37.5943C25.5371 41.412 27.2221 45.0732 30.2215 47.7727C33.2209 50.4722 37.289 51.9887 41.5308 51.9887C37.2865 51.9887 33.2161 53.5061 30.2149 56.2072C27.2137 58.9082 25.5277 62.5717 25.5277 66.3915C25.5277 70.2114 27.2137 73.8748 30.2149 76.5758C33.2161 79.2769 37.2865 80.7943 41.5308 80.7943C38.3657 80.7927 35.2711 81.6357 32.6384 83.2169C30.0056 84.7982 27.953 87.0465 26.7401 89.6776C25.5271 92.3088 25.2083 95.2045 25.824 97.9987C26.4397 100.793 27.9621 103.36 30.1989 105.375C32.4357 107.391 35.2863 108.764 38.3902 109.322C41.4941 109.879 44.712 109.595 47.6369 108.507C50.5618 107.418 53.0624 105.574 54.8223 103.206C56.5823 100.838 57.5227 98.0542 57.5246 95.2056V52.0056H73.5371ZM73.5371 52.0056C70.3738 52.0056 67.2816 52.8498 64.6514 54.4315C62.0213 56.0131 59.9713 58.2612 58.7608 60.8915C57.5502 63.5217 57.2335 66.4159 57.8506 69.2082C58.4678 72.0004 59.991 74.5652 62.2278 76.5783C64.4645 78.5914 67.3144 79.9623 70.4168 80.5177C73.5193 81.0732 76.7351 80.7881 79.6576 79.6986C82.5801 78.6091 85.078 76.7642 86.8354 74.397C88.5928 72.0299 89.5308 69.2469 89.5308 66.4C89.5303 62.5825 87.8451 58.9215 84.8458 56.2221C81.8465 53.5227 77.7787 52.006 73.5371 52.0056Z" fill="white"/>
</g>
<defs>
<clipPath id="clip0">
<rect width="72" height="86.4" fill="white" transform="translate(21.6001 23.2)"/>
</clipPath>
</defs>
</svg>
