<svg width="100%" height="100%" viewBox="0 0 120 120" fill="none" xmlns="http://www.w3.org/2000/svg">
<rect x="8" width="112" height="112" rx="20" fill="#CFC590"/>
<g clip-path="url(#clip0)">
<rect y="8" width="112" height="112" rx="20" fill="white"/>
<path d="M-0.0344238 7.92676V122.212H111.966V7.92676H-0.0344238ZM93.0156 34.9931L87.0156 40.8604C86.4906 41.2686 86.2406 41.9319 86.3406 42.5696V85.7584C86.2406 86.4217 86.4906 87.0849 87.0156 87.4676L92.8906 93.3349V94.6359H63.3906V93.3859L69.4656 87.3655C70.0656 86.7533 70.0656 86.5747 70.0656 85.6563V50.7329L53.1656 94.5084H50.8906L31.2156 50.7329V80.0696C31.0406 81.2941 31.4656 82.5441 32.3156 83.437L40.2156 93.2074V94.5084H17.7656V93.2074L25.6656 83.437C26.5156 82.5441 26.8906 81.2941 26.6906 80.0696V46.141C26.7906 45.1972 26.4406 44.2788 25.7406 43.641L18.7156 34.9931V33.6921H40.5406L57.3906 71.4472L72.2156 33.7176H93.0156V34.9931Z" fill="#333333"/>
</g>
<defs>
<clipPath id="clip0">
<rect y="8" width="112" height="112" rx="20" fill="white"/>
</clipPath>
</defs>
</svg>
