<svg width="100%" height="100%" viewBox="0 0 120 120" fill="none" xmlns="http://www.w3.org/2000/svg">
<rect width="112" height="112" rx="20" fill="#CFC590"/>
<g clip-path="url(#clip0)">
<rect x="8" y="8" width="112" height="112" rx="20" fill="white"/>
<path d="M7.96558 7.92676V122.212H119.966V7.92676H7.96558ZM101.016 34.9931L95.0156 40.8604C94.4906 41.2686 94.2406 41.9319 94.3406 42.5696V85.7584C94.2406 86.4217 94.4906 87.0849 95.0156 87.4676L100.891 93.3349V94.6359H71.3906V93.3859L77.4656 87.3655C78.0656 86.7533 78.0656 86.5747 78.0656 85.6564V50.7329L61.1656 94.5084H58.8906L39.2156 50.7329V80.0696C39.0406 81.2941 39.4656 82.5441 40.3156 83.437L48.2156 93.2074V94.5084H25.7656V93.2074L33.6656 83.437C34.5156 82.5441 34.8906 81.2941 34.6906 80.0696V46.141C34.7906 45.1972 34.4406 44.2788 33.7406 43.641L26.7156 34.9931V33.6921H48.5406L65.3906 71.4472L80.2156 33.7176H101.016V34.9931Z" fill="#333333"/>
</g>
<defs>
<clipPath id="clip0">
<rect x="8" y="8" width="112" height="112" rx="20" fill="white"/>
</clipPath>
</defs>
</svg>
