<svg width="100%" height="100%" viewBox="0 0 120 120" fill="none" xmlns="http://www.w3.org/2000/svg">
<rect width="112" height="112" rx="20" fill="#CFC590"/>
<rect x="20" y="20" width="86" height="88" fill="#F6F6F6"/>
<path d="M96.6667 8H31.3333C18.4487 8 8 18.4487 8 31.3333V96.6667C8 109.551 18.4487 120 31.3333 120H96.6667C109.556 120 120 109.551 120 96.6667V31.3333C120 18.4487 109.556 8 96.6667 8ZM56.944 46.6027L82.76 61.7367L79.5587 67.1593L53.738 52.0253L56.944 46.6027V46.6027ZM50.1493 61.13L79.0127 69.2453L77.4633 74.9853L48.5113 67.206L50.1493 61.13V61.13ZM47.0133 74.2573L77.3373 77.2907L76.7913 83.264L46.4393 80.5293L47.0133 74.2573ZM46.1127 85.7793H77.2253V92H46.1127V85.7793ZM87.3333 101.333H36V68.6667H40.6667V96.6667H82.6667V68.6667H87.3333V101.333ZM83.3573 60.7147L66.744 36.3593L71.9473 32.8127L88.556 57.168L83.3573 60.7147ZM89.6853 56.79L84.6453 27.7447L90.8427 26.6667L95.892 55.712L89.6853 56.79V56.79Z" fill="#333333"/>
</svg>
