<?xml version="1.0" standalone="no"?>
<!DOCTYPE svg PUBLIC "-//W3C//DTD SVG 20010904//EN"
 "http://www.w3.org/TR/2001/REC-SVG-20010904/DTD/svg10.dtd">
<svg version="1.0" xmlns="http://www.w3.org/2000/svg"
 width="72.000000pt" height="72.000000pt" viewBox="0 0 72.000000 72.000000"
 preserveAspectRatio="xMidYMid meet">
<metadata>
Created by potrace 1.14, written by Peter Selinger 2001-2017
</metadata>
<g transform="translate(0.000000,72.000000) scale(0.100000,-0.100000)"
fill="#000000" stroke="none">
<path d="M145 635 c-7 -5 -40 -120 -74 -255 -34 -135 -64 -253 -67 -262 -5
-16 3 -18 64 -18 l69 0 9 48 9 47 58 1 57 0 10 -35 c5 -20 10 -42 10 -48 0 -9
21 -13 70 -13 l70 0 0 101 c0 84 3 105 19 125 l19 25 40 -103 c22 -57 43 -113
46 -125 7 -21 13 -23 86 -23 l79 0 -73 178 -72 177 67 90 c37 50 66 91 64 93
-3 3 -79 5 -122 3 -21 -1 -56 -41 -128 -147 l-25 -37 0 91 0 91 -32 3 c-18 2
-50 0 -70 -3 -21 -3 -40 -4 -42 -1 -10 9 -129 7 -141 -3z m88 -272 l14 -73
-34 0 c-18 0 -33 2 -33 5 0 2 5 27 11 55 12 55 16 79 19 95 3 17 9 -5 23 -82z"/>
</g>
</svg>
