<svg width="100%" height="100%" viewBox="0 0 40 57" fill="none" xmlns="http://www.w3.org/2000/svg">
<g clip-path="url(#clip0)">
<path d="M30.8202 2.82993H27.5785L30.9497 6.48825V8.22983H24.0062V6.1906H27.377L24.0062 2.53227V0.78894H30.8202V2.82993ZM22.6295 2.82993H19.3878L22.759 6.48825V8.22983H15.8151V6.1906H19.1863L15.8151 2.53227V0.78894H22.6295V2.82993ZM14.5191 2.91334H11.021V6.10543H14.5191V8.22983H8.53442V0.78894H14.5191V2.91334Z" fill="#131313"/>
<path d="M3.94146 51.5812L0.425385 11.6733H39.0588L35.5397 51.5746L19.7184 56.014L3.94146 51.5812Z" fill="#1572B6"/>
<path d="M20.1815 52.5336L33.1057 48.9503L36.1463 14.8866H20.1815V52.5336Z" fill="#33A9DC"/>
<path d="M20.1811 29.3306H26.6513L27.0987 24.3236H20.1811V19.4338H32.4424L32.3252 20.7456L31.1236 34.2199H20.1811V29.3306Z" fill="white"/>
<path d="M20.2105 42.0296L20.189 42.0358L14.7434 40.5651L14.3949 36.6653H9.48709L10.1724 44.3428L20.1881 47.1231L20.2109 47.1165V42.0296H20.2105Z" fill="#EBEBEB"/>
<path d="M26.236 34.0132L25.6468 40.5616L20.1934 42.0336V47.1209L30.2174 44.3428L30.2912 43.5166L31.142 34.0132H26.236Z" fill="white"/>
<path d="M20.1982 19.4338V24.3232H8.38733L8.28899 23.2243L8.0664 20.7456L7.94919 19.4338H20.1982ZM20.1811 29.331V34.2208H14.8044L14.7065 33.1219L14.4835 30.6428L14.3663 29.331H20.1811Z" fill="#EBEBEB"/>
</g>
<defs>
<clipPath id="clip0">
<rect width="38.6334" height="55.3161" fill="white" transform="translate(0.425354 0.697998)"/>
</clipPath>
</defs>
</svg>
