<svg width="100%" height="100%" viewBox="0 0 42 41" fill="none" xmlns="http://www.w3.org/2000/svg">
<g clip-path="url(#clip0)">
<mask id="mask0" mask-type="alpha" maskUnits="userSpaceOnUse" x="0" y="0" width="42" height="41">
<path d="M21.0917 0.12085C32.2798 0.12085 41.3333 9.17437 41.3333 20.3625C41.3333 31.5506 32.2798 40.6041 21.0917 40.6041C9.90362 40.6041 0.850098 31.5506 0.850098 20.3625C0.850098 9.17437 9.90362 0.12085 21.0917 0.12085Z" fill="white"/>
</mask>
<g mask="url(#mask0)">
<g filter="url(#filter0_d)">
<path d="M21.0917 0.595215C32.0176 0.595215 40.8589 9.43654 40.8589 20.3624C40.8589 31.2883 32.0176 40.1296 21.0917 40.1296C10.1659 40.1296 1.32452 31.2883 1.32452 20.3624C1.32452 9.43654 10.1659 0.595215 21.0917 0.595215Z" fill="black"/>
</g>
<path d="M21.0917 0.595215C32.0176 0.595215 40.8589 9.43654 40.8589 20.3624C40.8589 31.2883 32.0176 40.1296 21.0917 40.1296C10.1659 40.1296 1.32452 31.2883 1.32452 20.3624C1.32452 9.43654 10.1659 0.595215 21.0917 0.595215Z" fill="white"/>
<path d="M21.0917 1.28882C31.6342 1.28882 40.1653 9.81993 40.1653 20.3624C40.1653 30.9049 31.6342 39.436 21.0917 39.436C10.5492 39.436 2.01813 30.9049 2.01813 20.3624C2.01813 9.81993 10.5492 1.28882 21.0917 1.28882Z" fill="#5C5C5E"/>
<path d="M31.2181 28.7548C30.5245 30.9049 29.4841 32.5002 28.0276 33.6792C26.571 34.8583 24.629 35.4826 22.2014 35.6906L21.7159 32.5001C23.3112 32.2921 24.4903 31.9453 25.2532 31.3904C25.5307 31.1823 26.0855 30.5581 26.0855 30.5581L20.3288 12.1087H25.1145L28.4437 25.9111L31.981 12.1087H36.628L31.2181 28.7548ZM14.5026 11.4845C15.6124 11.4845 16.6528 11.6232 17.4851 11.97C18.3867 12.3168 19.219 12.8023 20.0513 13.4959L18.1093 16.1315C17.5544 15.7154 16.9996 15.4379 16.514 15.2299C16.0285 15.0218 15.4043 14.9524 14.8494 14.9524C12.4912 14.9524 11.3121 16.7558 11.3121 20.4318C11.3121 22.3044 11.5896 23.6223 12.2138 24.3852C12.838 25.2175 13.6703 25.5643 14.8494 25.5643C15.4043 25.5643 15.9592 25.4949 16.4447 25.2869C16.9302 25.0788 17.4851 24.8013 18.1786 24.3852L20.1207 27.1595C18.5254 28.4774 16.7221 29.1016 14.6414 29.1016C12.9768 29.1016 11.5896 28.7548 10.3411 28.0612C9.16203 27.3676 8.19101 26.3272 7.56678 25.0094C6.94256 23.6916 6.59576 22.1657 6.59576 20.3624C6.59576 18.6284 6.94256 17.0332 7.56678 15.7154C8.19101 14.3282 9.16203 13.2878 10.3411 12.5249C11.5202 11.9006 12.9074 11.4845 14.5026 11.4845Z" fill="white"/>
</g>
</g>
<defs>
<filter id="filter0_d" x="0.691974" y="-0.0373355" width="40.7995" height="40.7995" filterUnits="userSpaceOnUse" color-interpolation-filters="sRGB">
<feFlood flood-opacity="0" result="BackgroundImageFix"/>
<feColorMatrix in="SourceAlpha" type="matrix" values="0 0 0 0 0 0 0 0 0 0 0 0 0 0 0 0 0 0 127 0"/>
<feOffset/>
<feGaussianBlur stdDeviation="0.316275"/>
<feColorMatrix type="matrix" values="0 0 0 0 0 0 0 0 0 0 0 0 0 0 0 0 0 0 0.3 0"/>
<feBlend mode="normal" in2="BackgroundImageFix" result="effect1_dropShadow"/>
<feBlend mode="normal" in="SourceGraphic" in2="effect1_dropShadow" result="shape"/>
</filter>
<clipPath id="clip0">
<rect width="40.4832" height="40.4832" fill="white" transform="translate(0.850098 0.12085)"/>
</clipPath>
</defs>
</svg>
