<svg width="100%" height="100%" viewBox="0 0 120 120" fill="none" xmlns="http://www.w3.org/2000/svg">
<circle cx="64" cy="64" r="56" fill="#CFC590"/>
<circle cx="56" cy="56" r="56" fill="#333333"/>
<path d="M56 14.0151C32.8495 14.0151 14.0153 32.8494 14.0153 55.9999C14.0153 79.1505 32.8495 97.9847 56 97.9847C79.1506 97.9847 97.9848 79.1505 97.9848 55.9999C97.9848 32.8494 79.1506 14.0151 56 14.0151ZM83.7591 33.3766C88.7538 39.4789 91.7784 47.2513 91.8572 55.7157C90.6749 55.4656 78.8186 53.0608 66.8861 54.5614C65.9123 52.1844 64.9933 50.0933 63.7344 47.5165C76.9936 42.103 83.003 34.3993 83.7591 33.3766V33.3766ZM79.7724 29.2295C79.1274 30.1483 73.7291 37.404 60.9773 42.1837C55.1008 31.3868 48.5875 22.5172 47.5963 21.19C58.9688 18.4486 70.9531 21.405 79.7724 29.2295V29.2295ZM40.7536 23.6005C41.6991 24.8972 48.1074 33.7778 54.0494 44.3405C37.2747 48.7951 22.4999 48.731 20.896 48.7098C23.2214 37.5816 30.7208 28.3328 40.7536 23.6005ZM20.1386 56.0546C20.1386 55.6879 20.1459 55.3229 20.1569 54.9588C21.7259 54.9909 39.1042 55.2149 57.0131 49.8552C58.0397 51.8644 59.0204 53.9039 59.9205 55.9412C46.9528 59.5937 35.1708 70.0818 29.3578 80.0327C23.6301 73.675 20.1386 65.2654 20.1386 56.0546ZM33.988 84.3457C37.734 76.6881 47.9002 66.8032 62.358 61.871C67.3928 74.9545 69.475 85.9197 70.0082 89.066C58.4773 93.9777 44.6117 92.6301 33.988 84.3457V84.3457ZM76.0371 85.7829C75.6696 83.6014 73.7608 73.1033 69.0703 60.214C80.308 58.4151 90.1812 61.3597 91.4081 61.7469C89.8096 71.7253 84.0823 80.3428 76.0371 85.7829Z" fill="white"/>
</svg>
