<svg width="100%" height="100%" viewBox="0 0 117 117" fill="none" xmlns="http://www.w3.org/2000/svg">
<g clip-path="url(#clip0)">
<path d="M71.7307 42.2618L60.0307 53.1575L49.1692 31.2395L54.7803 18.6376C56.1989 16.1221 58.5194 16.0928 59.9381 18.6376L71.7307 42.2618Z" fill="#FFA000"/>
<path d="M60.0308 53.1519L16.2582 93.863L49.1693 31.2388L60.0308 53.1519Z" fill="#F57F17"/>
<path d="M84.5617 25.5982C86.6579 23.5995 88.8176 24.2771 89.3636 27.1095L100.742 93.312L62.9996 115.971C61.6736 116.712 58.1636 117 58.1636 117C58.1636 117 54.9704 116.61 53.7468 115.937L16.2629 93.8629L84.5617 25.5982Z" fill="#FFCA28"/>
<path d="M49.1692 31.2392L16.2629 93.8635L30.9269 2.3256C31.4778 -0.511653 33.0866 -0.799277 34.5344 1.71135L49.1692 31.2392Z" fill="#FFA000"/>
</g>
<defs>
<clipPath id="clip0">
<rect width="117" height="117" fill="white"/>
</clipPath>
</defs>
</svg>
