<svg width="100%" height="100%" viewBox="0 0 120 120" fill="none" xmlns="http://www.w3.org/2000/svg">
<rect y="8" width="112" height="112" rx="20" fill="#CFC590"/>
<rect x="23" y="14" width="84" height="87" fill="#F6F6F6"/>
<path d="M96.6667 0H31.3333C18.4487 0 8 10.4487 8 23.3333V88.6667C8 101.551 18.4487 112 31.3333 112H96.6667C109.556 112 120 101.551 120 88.6667V23.3333C120 10.4487 109.556 0 96.6667 0ZM75.8253 91.42C73.9353 91.784 73.3333 90.622 73.3333 89.628V79.3847C73.3333 75.8987 72.1107 73.6307 70.7667 72.4733C79.0827 71.5493 87.8187 68.39 87.8187 54.054C87.8187 49.9753 86.3627 46.6433 83.978 44.0347C84.3607 43.092 85.6393 39.2933 83.6093 34.1553C83.6093 34.1553 80.478 33.152 73.352 37.982C70.3653 37.142 67.1733 36.736 64 36.7173C60.8267 36.7313 57.6347 37.142 54.6527 37.9727C47.522 33.1427 44.386 34.146 44.386 34.146C42.3607 39.2887 43.6393 43.0827 44.0267 44.03C41.6373 46.6433 40.1813 49.9707 40.1813 54.0493C40.1813 68.348 48.894 71.554 57.1913 72.5013C56.1227 73.4347 55.1567 75.0773 54.8207 77.4947C52.688 78.4467 47.2887 80.094 43.9567 74.3867C43.9567 74.3867 41.9827 70.8027 38.2307 70.5367C38.2307 70.5367 34.5907 70.49 37.974 72.8093C37.974 72.8093 40.424 73.9573 42.1227 78.2693C42.1227 78.2693 44.2833 84.9333 54.6667 82.6747V89.6233C54.6667 90.608 54.0647 91.7653 52.2027 91.42C37.3627 86.4873 26.6667 72.492 26.6667 56C26.6667 35.378 43.3827 18.6667 64 18.6667C84.6173 18.6667 101.333 35.378 101.333 56C101.333 72.4873 90.6513 86.478 75.8253 91.42V91.42Z" fill="#333333"/>
</svg>
