<svg width="100%" height="100%" viewBox="0 0 120 120" fill="none" xmlns="http://www.w3.org/2000/svg">
<ellipse cx="64" cy="56" rx="56" ry="56" fill="#CFC590"/>
<g clip-path="url(#clip0)">
<rect y="8" width="112" height="112" rx="56" fill="white"/>
<path d="M37.4613 98.1822C37.4613 98.6454 36.9419 99.016 36.2871 99.016C35.5419 99.0854 35.0226 98.7149 35.0226 98.1822C35.0226 97.719 35.5419 97.3485 36.1968 97.3485C36.8742 97.279 37.4613 97.6496 37.4613 98.1822ZM30.4387 97.1401C30.2806 97.6032 30.7323 98.1359 31.4097 98.2749C31.9968 98.5065 32.6742 98.2749 32.8097 97.8117C32.9452 97.3485 32.5161 96.8158 31.8387 96.6074C31.2516 96.4453 30.5968 96.6769 30.4387 97.1401ZM40.4194 96.7464C39.7645 96.9085 39.3129 97.3485 39.3806 97.8812C39.4484 98.3443 40.0355 98.6454 40.7129 98.4833C41.3677 98.3212 41.8194 97.8812 41.7516 97.418C41.6839 96.9779 41.0742 96.6769 40.4194 96.7464ZM55.2774 8C23.9581 8 0 32.3867 0 64.5086C0 90.1923 15.7613 112.17 38.2742 119.906C41.1645 120.438 42.1806 118.609 42.1806 117.103C42.1806 115.667 42.1129 107.747 42.1129 102.884C42.1129 102.884 26.3065 106.357 22.9871 95.9821C22.9871 95.9821 20.4129 89.2427 16.7097 87.5058C16.7097 87.5058 11.5387 83.8698 17.071 83.9393C17.071 83.9393 22.6935 84.4025 25.7871 89.9144C30.7323 98.8538 39.0194 96.2832 42.2484 94.7547C42.7677 91.0492 44.2355 88.4785 45.8613 86.95C33.2387 85.5141 20.5032 83.6382 20.5032 61.359C20.5032 54.9902 22.2194 51.7942 25.8323 47.7182C25.2452 46.2128 23.3258 40.0061 26.4194 31.993C31.1387 30.4877 42 38.246 42 38.246C46.5161 36.9491 51.371 36.2775 56.1806 36.2775C60.9903 36.2775 65.8452 36.9491 70.3613 38.246C70.3613 38.246 81.2226 30.4645 85.9419 31.993C89.0355 40.0293 87.1161 46.2128 86.529 47.7182C90.1419 51.8174 92.3548 55.0133 92.3548 61.359C92.3548 83.7077 79.0548 85.4909 66.4323 86.95C68.5097 88.7796 70.271 92.2534 70.271 97.6959C70.271 105.501 70.2032 115.158 70.2032 117.057C70.2032 118.562 71.2419 120.392 74.1097 119.859C96.6903 112.17 112 90.1923 112 64.5086C112 32.3867 86.5968 8 55.2774 8ZM21.9484 87.8763C21.6548 88.1079 21.7226 88.6406 22.1065 89.0806C22.4677 89.4512 22.9871 89.6133 23.2806 89.3122C23.5742 89.0806 23.5065 88.548 23.1226 88.1079C22.7613 87.7374 22.2419 87.5753 21.9484 87.8763ZM19.5097 86.0004C19.3516 86.3015 19.5774 86.6721 20.029 86.9037C20.3903 87.1353 20.8419 87.0658 21 86.7415C21.1581 86.4405 20.9323 86.0699 20.4806 85.8383C20.029 85.6994 19.6677 85.7689 19.5097 86.0004ZM26.8258 94.2451C26.4645 94.5462 26.6 95.241 27.1194 95.681C27.6387 96.2137 28.2935 96.2832 28.5871 95.9126C28.8806 95.6115 28.7452 94.9168 28.2935 94.4767C27.7968 93.9441 27.1194 93.8746 26.8258 94.2451ZM24.2516 90.8407C23.8903 91.0723 23.8903 91.6745 24.2516 92.2071C24.6129 92.7398 25.2226 92.9714 25.5161 92.7398C25.8774 92.4387 25.8774 91.8366 25.5161 91.3039C25.2 90.7713 24.6129 90.5397 24.2516 90.8407Z" fill="#333333"/>
</g>
<defs>
<clipPath id="clip0">
<rect y="8" width="112" height="112" rx="56" fill="white"/>
</clipPath>
</defs>
</svg>
