<svg width="100%" height="100%" viewBox="0 0 114 40" fill="none" xmlns="http://www.w3.org/2000/svg">
<rect x="2" y="2" width="112" height="37.3333" rx="4" fill="#CFC590"/>
<path d="M107.852 37.33H4.14815C1.8667 37.33 0 35.2302 0 32.6638V4.66627C0 2.09981 1.86666 0 4.14815 0H107.852C110.133 0 112 2.09981 112 4.66627V32.6637C112 35.2302 110.133 37.33 107.852 37.33" fill="black"/>
<path d="M107.852 0H4.14815C1.8667 0 0 2.09981 0 4.66627V32.6637C0 35.2302 1.86666 37.33 4.14815 37.33H107.852C110.133 37.33 112 35.2302 112 32.6638V4.66627C112 2.09981 110.133 0 107.852 0H107.852ZM107.852 0.746577C109.773 0.746577 111.336 2.50523 111.336 4.66627V32.6637C111.336 34.8252 109.773 36.5838 107.852 36.5838H4.14815C2.22708 36.5838 0.663711 34.8252 0.663711 32.6638V4.66627C0.663711 2.50523 2.22705 0.746619 4.14815 0.746619H107.852" fill="#A6A6A6"/>
<path d="M39.3397 9.5597C39.3397 10.3416 39.1339 10.9642 38.7217 11.4287C38.2534 11.981 37.6431 12.2574 36.8929 12.2574C36.1744 12.2574 35.5635 11.9774 35.0612 11.4167C34.558 10.8564 34.3068 10.1615 34.3068 9.33254C34.3068 8.50317 34.558 7.80877 35.0612 7.248C35.5635 6.68773 36.1744 6.40735 36.8929 6.40735C37.2494 6.40735 37.5907 6.48578 37.9147 6.64218C38.2388 6.79897 38.4987 7.00708 38.6932 7.26771L38.2556 7.7602C37.9261 7.31729 37.4724 7.096 36.8929 7.096C36.3689 7.096 35.9158 7.30311 35.5334 7.71759C35.151 8.13249 34.9598 8.67052 34.9598 9.33254C34.9598 9.99461 35.151 10.5326 35.5334 10.9475C35.9158 11.362 36.3689 11.5691 36.8929 11.5691C37.4487 11.5691 37.9122 11.3609 38.2832 10.9439C38.524 10.6722 38.6633 10.2946 38.7006 9.80972H36.8928V9.13713H39.305C39.3283 9.28339 39.3397 9.42373 39.3397 9.5597" fill="white"/>
<path d="M39.3398 9.55964H39.2568C39.2561 10.3237 39.0577 10.9172 38.663 11.3627L38.6621 11.3634L38.6617 11.3642C38.2084 11.8974 37.6256 12.1628 36.8929 12.164C36.1936 12.1628 35.6083 11.8945 35.1195 11.3506C34.6319 10.8056 34.3907 10.1403 34.3898 9.33248C34.3907 8.52429 34.6319 7.85934 35.1195 7.31471C35.6083 6.77043 36.1936 6.50174 36.8929 6.50061C37.2387 6.50061 37.568 6.57653 37.882 6.72777C38.1963 6.88019 38.4446 7.07992 38.6296 7.32788L38.6932 7.26765L38.6345 7.20168L38.197 7.6945L38.2556 7.76014L38.3195 7.70042C37.9746 7.23557 37.4905 7.00124 36.8929 7.00262C36.3495 7.00186 35.8715 7.2203 35.476 7.65051C35.0768 8.08209 34.8762 8.65042 34.8769 9.33248C34.8762 10.0146 35.0768 10.5829 35.476 11.0145C35.8715 11.4447 36.3495 11.6631 36.8929 11.6623C37.4671 11.6635 37.9565 11.4443 38.3418 11.0098C38.5992 10.7196 38.745 10.3175 38.7833 9.81767L38.791 9.71634H36.9758V9.2304H39.305V9.13707L39.2233 9.15347C39.246 9.29499 39.2567 9.42946 39.2567 9.55964H39.4227C39.4227 9.4178 39.411 9.272 39.3867 9.12038L39.3744 9.04375H36.81V9.90299H38.7006V9.80966L38.618 9.80165C38.5814 10.2712 38.4485 10.6249 38.2245 10.8779C37.8681 11.2774 37.4306 11.4746 36.8929 11.4757C36.3884 11.4749 35.9603 11.2795 35.5911 10.8804C35.2256 10.4826 35.0438 9.97483 35.0428 9.33248C35.0438 8.69013 35.2256 8.18234 35.5911 7.7846C35.9603 7.38543 36.3883 7.19002 36.8929 7.18926C37.4539 7.19077 37.8775 7.39927 38.1922 7.82033L38.2505 7.89834L38.7519 7.33367L38.8056 7.27319L38.7567 7.20784C38.5528 6.93451 38.2813 6.71754 37.9475 6.55648C37.613 6.39492 37.2601 6.31397 36.8929 6.31397C36.1554 6.31325 35.5189 6.60488 35.0026 7.18201C34.4844 7.758 34.2232 8.48202 34.2239 9.33248C34.2232 10.1826 34.4844 10.907 35.0029 11.4833C35.5189 12.0601 36.1554 12.3514 36.8929 12.3506C37.661 12.3514 38.2981 12.0644 38.7817 11.4932L38.7216 11.4286L38.7803 11.4947C39.2101 11.0116 39.4233 10.3591 39.4227 9.55964H39.3397H39.3398ZM43.1638 7.22064H40.8969V8.99606H42.9412V9.6689H40.8969V11.4443H43.1638V12.1322H40.2578V6.53274H43.1638V7.22064" fill="white"/>
<path d="M43.1638 7.22067V7.12735H40.8139V9.08942H42.8582V9.57537L40.8139 9.57562V11.5377H43.0808V12.0389H40.3408V6.6261H43.0808V7.22067H43.1638V7.12735V7.22067H43.2467V6.43945H40.1749V12.2256H43.2467V11.351H40.9798V9.76226H43.0241V8.90278H40.9798V7.314H43.2467V7.22067H43.1638V7.22067ZM45.861 12.1323H45.221V7.22063H43.8307V6.53273H47.2513V7.22063H45.861V12.1322" fill="white"/>
<path d="M45.861 12.1323V12.0389H45.3039V7.12735H43.9137V6.62614H47.1684V7.12735H45.7781V12.1323H45.861V12.0389V12.1323H45.944V7.314H47.3343V6.43945H43.7477V7.31395H45.138V12.2255H45.944V12.1322H45.861V12.1323ZM49.7263 12.1323V6.53273H50.3657V12.1322H49.7263" fill="white"/>
<path d="M49.7263 12.1323H49.8092V6.6261H50.2827V12.0389H49.7263V12.1323H49.8092H49.7263V12.2256H50.4486V6.43945H49.6433V12.2256H49.7263V12.1323V12.1323ZM53.2029 12.1323H52.5629V7.22063H51.1726V6.53273H54.5932V7.22063H53.2029V12.1322" fill="white"/>
<path d="M53.2029 12.1323V12.039H52.6458V7.12738H51.2556V6.62616H54.5103V7.12738H53.12V12.1323H53.2029V12.039V12.1323H53.2859V7.31402H54.6762V6.43948H51.0897V7.31398H52.4799V12.2256H53.2859V12.1322H53.2029V12.1323ZM57.891 10.9399C58.2595 11.3595 58.7103 11.569 59.2434 11.569C59.7765 11.569 60.2276 11.3595 60.5954 10.9399C60.9642 10.5203 61.149 9.98395 61.149 9.33254C61.149 8.68118 60.9642 8.14482 60.5954 7.72522C60.2276 7.30563 59.7765 7.096 59.2434 7.096C58.7103 7.096 58.2595 7.30563 57.891 7.72522C57.5232 8.14482 57.3385 8.68114 57.3385 9.33254C57.3385 9.98395 57.5232 10.5203 57.891 10.9399ZM61.0686 11.4087C60.5792 11.9748 59.9706 12.2574 59.2434 12.2574C58.5155 12.2574 57.9072 11.9748 57.4189 11.4087C56.9292 10.8432 56.6855 10.151 56.6855 9.33254C56.6855 8.51408 56.9292 7.82178 57.4189 7.25643C57.9072 6.69021 58.5155 6.40735 59.2434 6.40735C59.9668 6.40735 60.5737 6.69172 61.0654 7.26008C61.5563 7.8284 61.802 8.5192 61.802 9.33254C61.802 10.151 61.5569 10.8432 61.0686 11.4087Z" fill="white"/>
<path d="M57.891 10.9398L57.832 11.0054C58.2141 11.4418 58.6908 11.6635 59.2434 11.6623C59.7956 11.6635 60.2729 11.4418 60.6544 11.0054C61.039 10.5687 61.2325 10.0036 61.2319 9.33249C61.2324 8.66141 61.039 8.09631 60.6544 7.65952C60.2729 7.22315 59.7956 7.00153 59.2434 7.00262C58.6908 7.00153 58.2141 7.22315 57.832 7.65952C57.4483 8.09631 57.2545 8.66141 57.2555 9.33249C57.2545 10.0036 57.4483 10.5687 57.832 11.0054L57.891 10.9398L57.95 10.8742C57.598 10.4714 57.4221 9.9646 57.4214 9.33249C57.4221 8.70041 57.598 8.19366 57.95 7.79076C58.3051 7.38799 58.7293 7.1904 59.2434 7.18931C59.757 7.1904 60.1822 7.38799 60.5364 7.79076C60.889 8.19366 61.065 8.70041 61.0656 9.33249C61.065 9.96456 60.889 10.4714 60.5364 10.8742C60.1822 11.277 59.757 11.4746 59.2434 11.4757C58.7293 11.4746 58.3051 11.277 57.95 10.8742L57.891 10.9398ZM61.0685 11.4086L61.0092 11.3438C60.5335 11.892 59.9518 12.1629 59.2434 12.164C58.5346 12.1628 57.9529 11.892 57.4781 11.3438L57.4758 11.3408L57.4781 11.3438C57.0033 10.7936 56.7691 10.1301 56.7684 9.33249C56.7691 8.53482 57.0033 7.87138 57.4781 7.32126C57.9529 6.77294 58.5346 6.50174 59.2434 6.50065C59.9472 6.50174 60.5276 6.77408 61.006 7.32524C61.4824 7.87792 61.718 8.54032 61.719 9.33249C61.718 10.1301 61.483 10.7936 61.0092 11.3438L61.0685 11.4086L61.1282 11.4734C61.6311 10.8924 61.8855 10.1717 61.8849 9.33249C61.8855 8.49808 61.6301 7.77881 61.1249 7.19518C60.6194 6.60924 59.9861 6.31296 59.2434 6.31397C58.4967 6.31296 57.8615 6.60786 57.3592 7.19153V7.19111C56.8553 7.77256 56.6018 8.4933 56.6025 9.33249C56.6018 10.1717 56.8553 10.8924 57.3592 11.4738L57.3614 11.4765L57.3592 11.4734C57.8615 12.0571 58.4967 12.3514 59.2434 12.3506C59.9897 12.3514 60.6249 12.0571 61.1282 11.4734L61.0685 11.4086V11.4086ZM62.6996 12.1323V6.5327H63.478L65.8972 10.8887H65.9248L65.8972 9.80962V6.5327H66.5373V12.1322H65.8697L63.3387 7.56507H63.3111L63.3387 8.64454V12.1322H62.6996" fill="white"/>
<path d="M62.6996 12.1323H62.7826V6.6261H63.432L65.8512 10.9821H66.01L65.9802 9.80832V6.62614H66.4544V12.0389H65.9158L63.3847 7.47183H63.226L63.2557 8.64613V12.0389H62.6996V12.1323H62.7826H62.6996V12.2256H63.4216V8.64315L63.3941 7.56263L63.3111 7.56515V7.65847H63.3387V7.56515L63.2683 7.61477L65.8237 12.2256H66.6203V6.43945H65.8143V9.81079L65.8418 10.8913L65.9248 10.8888V10.7955H65.8973V10.8888L65.9676 10.8393L63.524 6.43945H62.6167V12.2256H62.6997V12.1323L62.6996 12.1323ZM88.7173 27.9975H90.2654V16.3308H88.7173L88.7173 27.9975ZM102.661 20.5334L100.886 25.5915H100.833L98.9914 20.5334H97.3239L100.086 27.6031L98.5111 31.5355H100.126L104.382 20.5334L102.661 20.5334ZM93.8817 26.6724C93.374 26.6724 92.6672 26.3873 92.6672 25.6816C92.6672 24.7811 93.5482 24.4359 94.3082 24.4359C94.9894 24.4359 95.3087 24.601 95.7227 24.8264C95.6024 25.9069 94.7752 26.6724 93.8817 26.6724V26.6724ZM94.0684 20.2782C92.9476 20.2782 91.7869 20.8337 91.3066 22.0645L92.6804 22.7097C92.9741 22.0645 93.5209 21.8541 94.095 21.8541C94.8956 21.8541 95.7095 22.3948 95.7227 23.3554V23.4753C95.4423 23.2952 94.8425 23.0251 94.1082 23.0251C92.6274 23.0251 91.1191 23.9404 91.1191 25.6516C91.1191 27.2127 92.3337 28.2184 93.6943 28.2184C94.7355 28.2184 95.3087 27.6931 95.6696 27.0778H95.7227V27.9782H97.2169V23.5051C97.2169 21.4342 95.843 20.2782 94.0684 20.2782V20.2782ZM84.5011 21.9536H82.2993V17.9546H84.5011C85.6585 17.9546 86.3156 19.0325 86.3156 19.954C86.3156 20.8582 85.6585 21.9536 84.5011 21.9536ZM84.4613 16.3308H80.752V27.9975H82.2993V23.5774H84.4613C86.177 23.5774 87.8636 22.18 87.8636 19.954C87.8636 17.7282 86.177 16.3308 84.4613 16.3308V16.3308ZM64.2341 26.6746C63.1646 26.6746 62.2692 25.6673 62.2692 24.2838C62.2692 22.8859 63.1646 21.8633 64.2341 21.8633C65.29 21.8633 66.1186 22.8858 66.1186 24.2838C66.1186 25.6673 65.29 26.6746 64.2341 26.6746H64.2341ZM66.0117 21.1867H65.9582C65.6108 20.7207 64.9422 20.2997 64.1003 20.2997C62.336 20.2997 60.7189 22.0437 60.7189 24.2838C60.7189 26.5091 62.336 28.2381 64.1003 28.2381C64.9422 28.2381 65.6108 27.817 65.9582 27.3362H66.0117V27.9075C66.0117 29.4263 65.29 30.2381 64.1272 30.2381C63.1782 30.2381 62.5901 29.471 62.3493 28.8247L60.9996 29.4561C61.3872 30.5085 62.4164 31.8017 64.1272 31.8017C65.9449 31.8017 67.482 30.5986 67.482 27.6669V20.5403H66.0117V21.1867ZM68.5511 27.9975H70.1015V16.3304H68.5511V27.9975ZM72.3871 24.1486C72.347 22.6149 73.443 21.8333 74.2315 21.8333C74.8467 21.8333 75.3677 22.1789 75.5411 22.6755L72.3871 24.1486ZM77.1988 22.8256C76.905 21.9383 76.009 20.2997 74.178 20.2997C72.3603 20.2997 70.8501 21.9084 70.8501 24.2689C70.8501 26.4942 72.347 28.2381 74.3517 28.2381C75.9692 28.2381 76.905 27.1255 77.2925 26.4791L76.0895 25.5769C75.6888 26.2385 75.1404 26.6746 74.3517 26.6746C73.5632 26.6746 73.002 26.2685 72.6409 25.4719L77.3589 23.2766L77.1988 22.8256ZM39.6097 21.5176V23.2015H43.1916C43.0847 24.1486 42.804 24.8402 42.3762 25.3213C41.8552 25.9079 41.0398 26.5543 39.6097 26.5543C37.4043 26.5543 35.6802 24.5547 35.6802 22.0739C35.6802 19.5932 37.4043 17.5933 39.6097 17.5933C40.7993 17.5933 41.6678 18.1196 42.3095 18.7962L43.3653 17.6086C42.4699 16.6461 41.2803 15.9094 39.6097 15.9094C36.5889 15.9094 34.0495 18.676 34.0495 22.0739C34.0495 25.4719 36.5889 28.2381 39.6097 28.2381C41.2404 28.2381 42.4699 27.637 43.4321 26.5091C44.4212 25.3965 44.7288 23.8329 44.7288 22.5701C44.7288 22.1789 44.7021 21.8184 44.6484 21.5176H39.6097ZM48.8011 26.6746C47.7316 26.6746 46.8093 25.6822 46.8093 24.2689C46.8093 22.8406 47.7316 21.8633 48.8011 21.8633C49.8701 21.8633 50.7924 22.8406 50.7924 24.2689C50.7924 25.6823 49.8701 26.6746 48.8011 26.6746ZM48.8011 20.2997C46.8495 20.2997 45.2589 21.9685 45.2589 24.2689C45.2589 26.5543 46.8495 28.2381 48.8011 28.2381C50.7523 28.2381 52.3428 26.5543 52.3428 24.2689C52.3428 21.9685 50.7523 20.2997 48.8011 20.2997ZM56.5276 26.6746C55.4585 26.6746 54.5361 25.6822 54.5361 24.2689C54.5361 22.8406 55.4585 21.8633 56.5276 21.8633C57.5967 21.8633 58.519 22.8406 58.519 24.2689C58.519 25.6823 57.5967 26.6746 56.5276 26.6746H56.5276ZM56.5276 20.2997C54.5761 20.2997 52.9858 21.9685 52.9858 24.2689C52.9858 26.5543 54.5761 28.2381 56.5276 28.2381C58.4789 28.2381 60.0695 26.5543 60.0695 24.2689C60.0695 21.9685 58.4789 20.2997 56.5276 20.2997H56.5276Z" fill="white"/>
<path d="M8.71822 7.10324C8.43981 7.38581 8.27362 7.85712 8.27362 8.48273V8.3413V28.9858V28.8498C8.27362 29.4276 8.41617 29.8738 8.65757 30.1611L8.71919 30.2275V30.2278C8.91459 30.4261 9.16514 30.5314 9.45229 30.5311C9.73287 30.5311 10.0486 30.4305 10.3817 30.218L22.424 22.5212L26.5604 19.8771C27.0857 19.5414 27.3807 19.1083 27.43 18.6672V18.6654C27.3807 18.2232 27.0857 17.7904 26.5604 17.4547L22.4236 14.8109L10.3818 7.11415C10.0479 6.90129 9.73198 6.80029 9.45065 6.80029C9.16383 6.80029 8.91362 6.90527 8.7183 7.10324H8.71822Z" fill="#00C1FF"/>
<path d="M8.71923 30.2275L8.65757 30.1612C8.41617 29.8739 8.27362 29.4277 8.27362 28.8499V28.9859V8.34647V8.48278C8.27362 7.85717 8.43981 7.38586 8.71822 7.1033L18.9972 18.6658L8.71923 30.2275Z" fill="url(#paint0_linear)"/>
<path d="M22.424 22.5212L18.9972 18.6658L22.4237 14.811L26.5604 17.4547C27.0857 17.7905 27.3807 18.2232 27.43 18.6654V18.6672C27.3807 19.1083 27.0857 19.5415 26.5604 19.8771L22.424 22.5212" fill="url(#paint1_linear)"/>
<path d="M9.45232 30.5311C9.16521 30.5314 8.91466 30.4261 8.7193 30.2278V30.2275L18.9973 18.6657L22.424 22.5212L10.3818 30.218C10.0486 30.4305 9.7329 30.5311 9.45232 30.5311Z" fill="url(#paint2_linear)"/>
<path d="M18.9972 18.6658L8.7182 7.10327C8.91359 6.9053 9.16381 6.80032 9.45059 6.80032C9.73192 6.80032 10.0479 6.90128 10.3817 7.11418L22.4236 14.811L18.9972 18.6658" fill="url(#paint3_linear)"/>
<path d="M9.45264 30.6678C9.16552 30.6678 8.91463 30.5625 8.71924 30.3642L8.7189 30.3645C8.7181 30.3636 8.71724 30.3628 8.71632 30.362L8.66288 30.3033C8.6612 30.3014 8.65963 30.2993 8.65765 30.2972L8.71927 30.2278C8.91467 30.4261 9.16518 30.5315 9.45237 30.5311C9.73292 30.5311 10.0486 30.4305 10.3818 30.218L22.424 22.5212L22.5012 22.608L22.423 22.658L10.3817 30.3543C10.0781 30.5479 9.78931 30.6489 9.52845 30.6657C9.5032 30.6671 9.47792 30.6678 9.45264 30.6678" fill="url(#paint4_linear)"/>
<path d="M8.65757 30.2971C8.41617 30.0098 8.27362 29.564 8.27362 28.9858V28.8499C8.27362 29.4276 8.41617 29.8738 8.65757 30.1611L8.71919 30.2275L8.65757 30.2971" fill="url(#paint5_linear)"/>
<path d="M22.5012 22.608L22.424 22.5212L26.5604 19.8771C27.0858 19.5414 27.3807 19.1083 27.43 18.6672C27.43 18.8291 27.3979 18.9909 27.3341 19.1484C27.2054 19.466 26.9475 19.766 26.5605 20.0135L22.5012 22.608" fill="url(#paint6_linear)"/>
<path d="M27.43 18.6654C27.3807 18.2232 27.0858 17.7905 26.5604 17.4547L22.4236 14.811L22.5008 14.7242H22.5011L26.5604 17.3187C27.1396 17.6891 27.4296 18.1772 27.43 18.6654" fill="url(#paint7_linear)"/>
<path d="M8.27362 8.48279V8.34018C8.27362 8.28876 8.27485 8.23847 8.27721 8.18965V8.18743C8.27721 8.18676 8.27721 8.18604 8.27743 8.18529V8.1798C8.30241 7.68215 8.43981 7.29397 8.65757 7.03477L8.71822 7.10326C8.43981 7.38587 8.27362 7.85717 8.27362 8.48279Z" fill="url(#paint8_linear)"/>
<path d="M22.4237 14.811L10.3818 7.11417C10.0479 6.90131 9.73202 6.80035 9.45069 6.80035C9.16388 6.80035 8.91366 6.90534 8.7183 7.1033L8.65765 7.03477C8.67659 7.01221 8.69628 6.99046 8.71666 6.96955C8.7173 6.96879 8.7183 6.96804 8.71894 6.96733C8.91276 6.77087 9.16033 6.66589 9.44457 6.664H9.45069C9.73202 6.664 10.0479 6.765 10.3818 6.97794L22.5012 14.7239L22.5008 14.7242L22.4237 14.811" fill="url(#paint9_linear)"/>
<defs>
<linearGradient id="paint0_linear" x1="14.8425" y1="8.12833" x2="4.95886" y2="16.9429" gradientUnits="userSpaceOnUse">
<stop stop-color="#00A0FF"/>
<stop offset="0.00657" stop-color="#00A1FF"/>
<stop offset="0.2601" stop-color="#00BEFF"/>
<stop offset="0.5122" stop-color="#00D2FF"/>
<stop offset="0.7604" stop-color="#00DFFF"/>
<stop offset="1" stop-color="#00E3FF"/>
</linearGradient>
<linearGradient id="paint1_linear" x1="28.07" y1="18.5992" x2="7.99546" y2="18.5992" gradientUnits="userSpaceOnUse">
<stop stop-color="#FFE000"/>
<stop offset="0.4087" stop-color="#FFBD00"/>
<stop offset="0.7754" stop-color="#FFA500"/>
<stop offset="1" stop-color="#FF9C00"/>
</linearGradient>
<linearGradient id="paint2_linear" x1="20.6047" y1="22.3313" x2="3.87032" y2="37.1467" gradientUnits="userSpaceOnUse">
<stop stop-color="#FF3A44"/>
<stop offset="1" stop-color="#C31162"/>
</linearGradient>
<linearGradient id="paint3_linear" x1="6.06902" y1="5.38908" x2="13.5285" y2="12.0033" gradientUnits="userSpaceOnUse">
<stop stop-color="#32A071"/>
<stop offset="0.0685" stop-color="#2DA771"/>
<stop offset="0.4762" stop-color="#15CF74"/>
<stop offset="0.8009" stop-color="#06E775"/>
<stop offset="1" stop-color="#00F076"/>
</linearGradient>
<linearGradient id="paint4_linear" x1="20.5972" y1="25.0057" x2="7.18413" y2="36.9682" gradientUnits="userSpaceOnUse">
<stop stop-color="#CC2E36"/>
<stop offset="1" stop-color="#9C0E4E"/>
</linearGradient>
<linearGradient id="paint5_linear" x1="9.64293" y1="8.12826" x2="0.935569" y2="15.894" gradientUnits="userSpaceOnUse">
<stop stop-color="#008DE0"/>
<stop offset="0.00657" stop-color="#008DE0"/>
<stop offset="0.2601" stop-color="#00A7E0"/>
<stop offset="0.5122" stop-color="#00B8E0"/>
<stop offset="0.7604" stop-color="#00C4E0"/>
<stop offset="1" stop-color="#00C7E0"/>
</linearGradient>
<linearGradient id="paint6_linear" x1="28.0701" y1="18.6663" x2="7.99548" y2="18.6663" gradientUnits="userSpaceOnUse">
<stop stop-color="#E0C500"/>
<stop offset="0.4087" stop-color="#E0A600"/>
<stop offset="0.7754" stop-color="#E09100"/>
<stop offset="1" stop-color="#E08900"/>
</linearGradient>
<linearGradient id="paint7_linear" x1="28.07" y1="18.6663" x2="7.99551" y2="18.6663" gradientUnits="userSpaceOnUse">
<stop stop-color="#FFE840"/>
<stop offset="0.4087" stop-color="#FFCE40"/>
<stop offset="0.7754" stop-color="#FFBC40"/>
<stop offset="1" stop-color="#FFB540"/>
</linearGradient>
<linearGradient id="paint8_linear" x1="9.63446" y1="8.14419" x2="1.29043" y2="15.2634" gradientUnits="userSpaceOnUse">
<stop stop-color="#40B8FF"/>
<stop offset="0.00657" stop-color="#40B9FF"/>
<stop offset="0.2601" stop-color="#40CEFF"/>
<stop offset="0.5122" stop-color="#40DDFF"/>
<stop offset="0.7604" stop-color="#40E7FF"/>
<stop offset="1" stop-color="#40EAFF"/>
</linearGradient>
<linearGradient id="paint9_linear" x1="6.0541" y1="7.83436" x2="12.0437" y2="13.1762" gradientUnits="userSpaceOnUse">
<stop stop-color="#65B895"/>
<stop offset="0.0685" stop-color="#62BD95"/>
<stop offset="0.4762" stop-color="#50DB97"/>
<stop offset="0.8009" stop-color="#44ED98"/>
<stop offset="1" stop-color="#40F498"/>
</linearGradient>
</defs>
</svg>
