<svg width="100%" height="100%" viewBox="0 0 40 56" fill="none" xmlns="http://www.w3.org/2000/svg">
<path d="M39.4254 11.0436L35.9058 50.9457L20.0851 55.3842L4.30808 50.9517L0.791931 11.0436H39.4254Z" fill="#E44D26"/>
<path d="M20.1086 52.7392L32.8927 49.087L35.9004 14.3661H20.1086V52.7392Z" fill="#F16529"/>
<path d="M13.2663 24.3343H20.1082V19.3529H7.9808L8.09664 20.6902L9.28537 34.4245H20.1087V29.4381H13.7085L13.2663 24.3343ZM14.3564 36.9139H9.50133L10.1786 44.7392L20.0861 47.5716L20.1082 47.5655V42.3818L20.0871 42.3874L14.7009 40.8888L14.3574 36.9139H14.3564Z" fill="#EBEBEB"/>
<path d="M4.38614 0H6.8441V2.50257H9.09249V0H11.5505V7.57802H9.09249V5.04055H6.8441V7.57802H4.38614V0ZM14.7824 2.51319H12.6189V0H19.4053V2.51319H17.2409V7.57802H14.7829V2.51319H14.7824ZM20.4827 0H23.0466L24.6231 2.6624L26.1966 0H28.7606V7.57802H26.3125V3.82163L24.6216 6.51589H24.5794L22.8871 3.82163V7.57752H20.4822L20.4827 0ZM29.9837 0H32.4422V5.07292H35.8984V7.57752H29.9837V0Z" fill="black"/>
<path d="M20.092 34.4214H26.0474L25.486 40.8852L20.0915 42.3853V47.5705L30.0058 44.7382L30.0784 43.8961L31.2152 30.7748L31.333 29.4365H20.092V34.4214ZM20.092 24.3216V24.3337H31.7732L31.8714 23.2134L32.0917 20.6846L32.2071 19.3473H20.092V24.3191V24.3216Z" fill="white"/>
</svg>
