<svg width="100%" height="100%" viewBox="0 0 120 120" fill="none" xmlns="http://www.w3.org/2000/svg">
<rect x="8" y="8" width="112" height="112" rx="12" fill="#CFC590"/>
<rect width="112" height="112" rx="12" fill="white"/>
<path d="M104 0H7.975C3.575 0 0 3.625 0 8.075V103.925C0 108.375 3.575 112 7.975 112H104C108.4 112 112 108.375 112 103.925V8.075C112 3.625 108.4 0 104 0ZM33.85 96H17.25V42.55H33.875V96H33.85ZM25.55 35.25C20.225 35.25 15.925 30.925 15.925 25.625C15.925 20.325 20.225 16 25.55 16C30.85 16 35.175 20.325 35.175 25.625C35.175 30.95 30.875 35.25 25.55 35.25V35.25ZM96.075 96H79.475V70C79.475 63.8 79.35 55.825 70.85 55.825C62.2 55.825 60.875 62.575 60.875 69.55V96H44.275V42.55H60.2V49.85H60.425C62.65 45.65 68.075 41.225 76.15 41.225C92.95 41.225 96.075 52.3 96.075 66.7V96V96Z" fill="#333333"/>
</svg>
