<svg width="100%" height="100%" viewBox="0 0 120 120" fill="none" xmlns="http://www.w3.org/2000/svg">
<rect y="8" width="112" height="112" rx="12" fill="#CFC590"/>
<rect x="20.174" y="12.8008" width="87.6522" height="87.04" fill="white"/>
<path d="M120 12V100C120 106.627 114.627 112 108 112H20C13.3725 112 8 106.627 8 100V12C8 5.3725 13.3725 0 20 0H108C114.627 0 120 5.3725 120 12ZM98 16H70.0072C64.679 16 61.9873 22.4652 65.7645 26.2427L73.7605 34.2395L24.8787 83.1212C23.7072 84.2927 23.7072 86.1922 24.8787 87.364L32.636 95.1212C33.8078 96.2927 35.7072 96.2927 36.8787 95.1212L85.7602 46.2397L93.7573 54.2375C97.5145 57.9942 104 55.3562 104 49.9947V22C104 18.6862 101.314 16 98 16Z" fill="#333333"/>
</svg>
